<svg viewBox="0 0 200 100" xmlns="http://www.w3.org/2000/svg">
<circle cx="0" cy="0" r="31.622776601683793" fill="none" stroke="black" />
<circle cx="0" cy="0" r="25.298221281347033" fill="none" stroke="black" />
<polyline points="36.622776601683796,0 0,0 19.98855100592026,30.686896139892713" fill="none" stroke="black" />
<circle cx="200" cy="0" r="47.415714694603096" fill="none" stroke="black" />
<circle cx="200" cy="0" r="41.23105625617661" fill="none" stroke="black" />
<polyline points="252.41571469460308,0 200,0 237.9224009143527,36.18423214381" fill="none" stroke="black" />
<circle cx="400" cy="0" r="76.03453162872775" fill="none" stroke="black" />
<circle cx="400" cy="0" r="69.95176909842952" fill="none" stroke="black" />
<polyline points="481.03453162872773,0 400,0 470.46484717975386,40.01625455013521" fill="none" stroke="black" />
<circle cx="600" cy="0" r="128.9585689281639" fill="none" stroke="black" />
<circle cx="600" cy="0" r="119.40608234089251" fill="none" stroke="black" />
<polyline points="733.9585689281639,0 600,0 726.7791603115934,43.265953126782605" fill="none" stroke="black" />
<circle cx="800" cy="0" r="238.41140912296962" fill="none" stroke="black" />
<circle cx="800" cy="0" r="229.8967159400064" fill="none" stroke="black" />
<polyline points="1043.4114091229696,0 800,0 1039.2811252497477,44.65038846913067" fill="none" stroke="black" />
<polyline fill="none" stroke="black" points="0,0 
0.5653931859953382,7.501607937609057e-07 
1.130775379270118,-0.003524912659324303 
1.696125361483718,-0.010514360534792332 
2.2614241837248774,-0.020843752737610986 
2.8266564848858824,-0.034330801886940175 
3.3918115373874023,-0.05073876954067799 
3.956883947130882,-0.06978152452043984 
4.521873964825434,-0.09112946765395012 
5.086787397930961,-0.11441611334304026 
5.651635143081385,-0.1392451199482879 
6.216432385355447,-0.1651975743627676 
6.781197531377431,-0.19183935751046036 
7.3459509570865755,-0.21872844303428082 
7.910713658021395,-0.24542200786421384 
8.475505890616155,-0.27148325823995156 
9.040345888166655,-0.2964878965631234 
9.605248725845188,-0.320030172435774 
10.170225396534578,-0.34172847530152356 
10.735282144372205,-0.36123043657943843 
11.300420086719795,-0.3782175166597384 
11.865635138664073,-0.3924090573142621 
12.430918237852243,-0.4035657836593455 
12.996255852110693,-0.4114927424132036 
13.56163073842152,-0.4160416653123062 
14.127022909884143,-0.41711274855061414 
14.692410757628325,-0.41465584120134696 
15.25777226754881,-0.40867103786718645 
15.823086267399175,-0.39920867327346193 
16.388333638332565,-0.3863687190907224 
16.953498426449126,-0.3702995858321617 
17.51856879426368,-0.3511963351023382 
18.083537759122738,-0.3292983096980847 
18.648403675278793,-0.30488619107426507 
19.213170428293825,-0.27827849558251677 
19.777847324335738,-0.24982752289283644 
20.342448672308965,-0.21991477247872337 
20.90699307309205,-0.18894584748945378 
21.471502446810288,-0.15734487037222558 
22.036000845310937,-0.12554844194503245 
22.60051311197803,-0.0939991859648427 
23.165063463755743,-0.06313893518519306 
23.729674079682525,-0.03340163279735979 
24.29436378526784,-0.005206044906936554 
24.859146921608957,0.021051595413835472 
25.424032481367774,0.04500486547221934 
25.98902358009426,0.06632417902490247 
26.55411731095464,0.08472336685524265 
27.119305004536553,0.09996560402973415 
27.68457288479624,0.11186847415608066 
28.24990308000393,0.12030797396097523 
28.81527491701713,0.12522129084817313 
29.380666401890622,0.12660823103180002 
29.946055772899737,0.12453123309259212 
30.511423005755326,0.11911396590956747 
31.07675115597098,0.11053857412447184 
31.642027439276905,0.09904169183557687 
32.207243975510515,0.08490939058618863 
32.772398151425286,0.06847125758319896 
33.33749258983756,0.05009381363586973 
33.90253474316603,0.03017347898886416 
34.467536156037454,0.009129282073345856 
35.032511462432375,-0.012604514982974324 
35.5974771969225,-0.034585725653889635 
36.16245050678841,-0.056371361051565885 
36.72744785267391,-0.07752446751036174 
37.29248378078285,-0.09762060436782026 
37.85756984050379,-0.11625390465465962 
38.422713708860805,-0.1330426755746409 
38.987918568400985,-0.14763450625773925 
39.55318276902029,-0.15971085788952694 
40.11849978766373,-0.16899111664769556 
40.683858483566915,-0.17523609360292963 
41.249243631373524,-0.17825095847908004 
41.81463670060813,-0.17788759641053656 
42.38001683805447,-0.17404637893774835 
42.94536199994664,-0.16667734266152137 
43.510650173804564,-0.15578077132449947 
44.075860625434125,-0.14140717959445503 
44.64097510518464,-0.1236566994083307 
45.20597894905026,-0.10267787228220196 
45.77086201457711,-0.07866585338533316 
46.33561939867173,-0.051860035339118066 
46.90025189410273,-0.02254110162926535 
47.46476615346741,0.008972478688965571 
48.02917454330344,0.04232850143169432 
48.5934946864244,0.07714560697563075 
49.15774870691849,0.11301836999691672 
49.72196220894837,0.14952287516673152 
50.28616303679267,0.1862227475141855 
50.850379878628466,0.22267559595388414 
51.414640789406874,0.2584398146373429 
51.97897171776266,0.29308166897017734 
52.54339512711709,0.32618257142399515 
53.10792880091559,0.357346427380669 
53.67258491539521,0.38620690470343244 
54.23736944986648,0.4124344549626248 
54.802281984254684,0.43574289252536336 
55.36731590737888,0.4558953238774996 
55.93245902885707,0.4727092174303393 
56.16976354410857,-9.57436431504872 
55.666169886184385,-9.589535791776628 
55.16047854434064,-9.607747298854452 
54.6516640887412,-9.628898123545053 
54.13876684608168,-9.652850541466574 
53.62091106785674,-9.67942841286577 
53.09731999999184,-9.708415937495564 
52.56732763494615,-9.739556932849144 
52.03038716041785,-9.77255497185252 
51.48607630092827,-9.807074653113897 
50.93409986834791,-9.842744191423952 
50.37428989597093,-9.879159420566031 
49.806603738002934,-9.915889205040177 
49.231120486745425,-9.952482169705066 
48.64803600848509,-9.988474581418314 
48.05765683943793,-10.023399156895982 
47.460393125223824,-10.056794526832267 
46.85675073796999,-10.088215057318024 
46.24732266782558,-10.117240714684424 
45.632779761443565,-10.143486657760613 
45.01386086802229,-10.166612250832074 
44.391362451769375,-10.186329210032477 
43.76612773545064,-10.202408624265772 
43.139035450075596,-10.214686627824188 
42.510988277886746,-10.223068544399831 
41.88290108713147,-10.227531369874978 
41.25568906556594,-10.228124512727316 
40.63025586385744,-10.224968764632557 
40.00748185930112,-10.218253528366382 
39.3882126445677,-10.208232383867271 
38.773247836306346,-10.195217124817386 
38.163330285796256,-10.179570445896053 
37.55913576054897,-10.161697503616406 
36.96126315439497,-10.142036610122222 
36.370225277050686,-10.121049348321138 
35.78644027546401,-10.099210417112326 
35.210223751142294,-10.076997526049816 
34.641781662288004,-10.05488165830456 
34.08120413780416,-10.033318007889783 
33.52846038113891,-10.012737870399521 
32.98339490200874,-9.99354172472743 
32.44572537658729,-9.976093685617657 
31.9150424915679,-9.960717433698184 
31.390812161163016,-9.947693642791396 
30.872380503193625,-9.937258828106694 
30.358981906122708,-9.929605440618946 
29.849750402723693,-9.924882942652939 
29.343734386359923,-9.923199529628542 
28.839914473496478,-9.924624125488165 
28.33722405607563,-9.929188284416252 
27.834571836431053,-9.936887683424244 
27.33086543701952,-9.947682985735318 
26.82503506394936,-9.961499981802316 
26.316056198764795,-9.978229054759339 
25.802970397808,-9.99772414886865 
25.28490347211948,-10.01980152370395 
24.761080567456656,-10.044238639994141 
24.230837922365616,-10.07077353996445 
23.693631315508267,-10.099105058388965 
23.149041396133672,-10.128894139151013 
22.59677621211113,-10.15976644774848 
22.036671309315413,-10.191316375058427 
21.46868778424529,-10.223112432286742 
20.8929086429375,-10.254703949174747 
20.30953376861703,-10.285628912167512 
19.718873741388716,-10.31542271887257 
19.12134269578677,-10.343627580455752 
18.517450352874857,-10.369802274190272 
17.907793326404157,-10.393531933138288 
17.293045778328395,-10.41443755759618 
16.673949486931793,-10.4321849421275 
16.05130338892618,-10.446492731437733 
15.425952662426173,-10.457139346757796 
14.798777427787083,-10.463968560560781 
14.170681155035723,-10.466893540071904 
13.542578877520462,-10.465899227815179 
12.915385319431493,-10.461042978963304 
12.290003048590979,-10.452453429037588 
11.667310764690347,-10.44032762001609 
11.04815182698456,-10.424926466615945 
10.433323115114705,-10.406568695923912 
9.823564303684412,-10.385623441235007 
9.219547617554126,-10.362501713598489 
8.621868123130243,-10.337647010936829 
8.031034604138695,-10.311525353544985 
7.447461071496167,-10.28461505517024 
6.87145896870488,-10.257396549559248 
6.303230158820766,-10.230342592095349 
5.742860817393123,-10.203909143584074 
5.190316406908451,-10.178527216973743 
4.645437968703769,-10.154595926539656 
4.107940031359931,-10.132476921991229 
3.5774104900405996,-10.11249031723986 
3.0533128456526724,-10.09491213700571 
2.5349911906319096,-10.079973208230486 
2.0216782747159963,-10.067859324493908 
1.5125068686970142,-10.058712420341672 
1.0065244650473821,-10.052632420807239 
0.502711122295119,-10.049679391957675 
0,-10.04987562112089 
" />
<polyline fill="none" stroke="black" points="0,0 
0.5027111605928891,6.669946023472898e-07 
1.0064614174025681,-0.008501302118522631 
1.5121900168483493,-0.0256402314897089 
2.020778423191912,-0.05165982979246183 
2.533022944959421,-0.08690817364649622 
3.049610301175582,-0.13183047383244462 
3.5710967389461303,-0.18695967203712277 
4.097891082548067,-0.2529049382129678 
4.630241885552993,-0.33033817107259317 
5.168228691974161,-0.41997864853082256 
5.7117572973529604,-0.5225760310084933 
6.260558832125934,-0.6388919862471263 
6.8141924561336324,-0.7696807753877576 
7.372051440330606,-0.9156692106092778 
7.933372405976276,-1.0775364577165134 
8.497247482437034,-1.255894205782513 
9.062639126215467,-1.451267754260104 
9.62839731433218,-1.664078571634573 
10.193278786683827,-1.8946288568321894 
10.755967968791484,-2.143088586010516 
11.315099163743632,-2.409485456296919 
11.869279565258998,-2.693698049702071 
12.41711261675534,-2.9954524411163224 
12.957221226761494,-3.314322370489494 
13.488270350109039,-3.649732996839491 
14.008988457025678,-4.00096815521412 
14.518187437692243,-4.367180950176087 
15.014780526878994,-4.747407442314419 
15.497797880842686,-5.140583118019928 
15.96639949582474,-5.545561776858774 
16.419885223427105,-5.961136424617871 
16.857701711884108,-6.386061722845738 
17.279446182320573,-6.819077517102667 
17.684867033192685,-7.258932946025861 
18.07386135095447,-7.704410621597109 
18.44646948633641,-8.154350367309467 
18.802866928579192,-8.607672004414097 
19.143353769565028,-9.063396685687621 
19.468342091707182,-9.520666289444872 
19.778341634822414,-9.978760402253513 
20.073944097340952,-10.437110436365057 
20.355806408146226,-10.895310448515804 
20.624633272018745,-11.353124254391126 
20.881159251598127,-11.810488474573273 
21.12613061116683,-12.267511212479198 
21.36028712179093,-12.724466162523683 
21.58434402109142,-13.181782085013191 
21.79897433806949,-13.640027764463099 
22.00479183252443,-14.099892781980618 
22.202334852368992,-14.562164660824003 
22.392051468427017,-15.027703158592956 
22.574286290755833,-15.497412647108881 
22.749269390204436,-15.972213613413095 
22.91710773556081,-16.453014316271467 
23.077779508678084,-16.94068354345089 
23.231131582291773,-17.436025254657164 
23.376880347108305,-17.93975569447637 
23.514615966734574,-18.452483353825617 
23.643810030243923,-18.97469197745188 
23.763826468687,-19.5067266784362 
23.873935506474503,-20.048783135264273 
23.973330331805222,-20.600899808326346 
24.061146091831226,-21.16295310853748 
24.13648074809444,-21.73465546553494 
24.19841726715792,-22.315556261368627 
24.24604657278948,-22.90504560551202 
24.27849065285039,-23.502360920560417 
24.2949251995254,-24.10659628205469 
24.294601168166324,-24.71671441158796 
24.276864668709813,-25.33156116400277 
24.24117465335403,-25.94988228320988 
24.18711793206805,-26.57034213367005 
24.114421129278043,-27.19154405205851 
24.022959285715103,-27.81205191098283 
23.912760903948637,-28.430412447125082 
23.784009330300698,-29.045177881500738 
23.637040456517806,-29.654928350042788 
23.47233680992862,-30.258293667949324 
23.290518180132487,-30.853973970273127 
23.09232900360493,-31.44075880306623 
22.878622795329274,-32.01754428299515 
22.650343978888667,-32.58334799757289 
22.408507523165206,-33.1373213815081 
22.154176844154858,-33.67875937497006 
21.88844047327867,-34.20710724371816 
21.61238802768715,-34.72196451498079 
21.327086042360765,-35.223086051845556 
21.033554237727472,-35.710380347610126 
20.73274280003551,-36.18390516537564 
20.425511245214437,-36.64386067388664 
20.11260942074697,-37.090580237368734 
19.794661173767835,-37.52451900725181 
19.472151175436878,-37.94624044324353 
19.14541533805987,-38.35640086979097 
18.814635187334716,-38.75573216355007 
18.479836451875215,-39.14502268049951 
18.140892001756434,-39.52509657771652 
17.79752910743586,-39.89679176871251 
17.44934080703707,-40.26093686818927 
9.50295685777634,-32.40015515103289 
9.724907598617605,-32.17789116248277 
9.946886051859114,-31.955654850727214 
10.168664488873564,-31.733218934468987 
10.389938022671751,-31.510280747505274 
10.610326620180453,-31.286467704868436 
10.82937709879804,-31.061344850001127 
11.046565074584715,-30.83442461040167 
11.261296937268051,-30.605178805391525 
11.472912041738063,-30.373052849224685 
11.68068541611604,-30.13748197482421 
11.883831379915714,-29.897909168858874 
12.081508528344882,-29.653804361542193 
12.272826557032413,-29.404684262262087 
12.4568553645329,-29.150132086910588 
12.632636771621767,-28.88981630005147 
12.799199036945184,-28.623507412222793 
12.955574136095791,-28.351091846713267 
13.100817521652607,-28.072581935007783 
13.234029818023314,-27.788121224079458 
13.354379654509058,-27.49798448248325 
13.461126631707119,-27.20257206767087 
13.55364327671318,-26.90239864719021 
13.631434792248475,-26.598076626828632 
13.694155455601068,-26.29029499912021 
13.74162067604899,-25.979794653204035 
13.773813963604187,-25.667341449983777 
13.790888376106844,-25.353698537734992 
13.793162366010671,-25.039599443600434 
13.781110307630929,-24.725723417349556 
13.755348314311219,-24.412674329080005 
13.716616220663301,-24.100964148162078 
13.665756783264609,-23.791001683347808 
13.60369323037244,-23.48308687797366 
13.531406266258365,-23.177410567499006 
13.449911519904822,-22.8740592558437 
13.360238242471956,-22.573024182670004 
13.263409831162896,-22.27421375659759 
13.160426519009135,-21.977468328015973 
13.052250348371324,-21.682576266284265 
12.93979236224429,-21.38929037620012 
12.82390181516964,-21.097343817623155 
12.705357129382199,-20.806464857507827 
12.584858298749648,-20.516389964105496 
12.46302046443494,-20.226874931515244 
12.340368440059724,-19.937703887178344 
12.217332037462965,-19.648696178626707 
12.094242124655096,-19.35971125630179 
11.9713274249281,-19.07065176665088 
11.848712132619998,-18.781465145144217 
11.726414472017943,-18.492144053314597 
11.604346359489686,-18.202726037513887 
11.482314345847463,-17.913292798903264 
11.36002201867913,-17.62396945265909 
11.237074036276125,-17.334924117825185 
11.11298194891357,-17.046368116639577 
10.987171941346908,-16.75855697376583 
10.858994602220601,-16.47179229375672 
10.727736789186851,-16.186424463608013 
10.592635608734922,-15.902855983330827 
10.452894462186611,-15.62154508072026 
10.307701019952235,-15.34300912918374 
10.156246873304825,-15.067827273987 
9.99774847879811,-14.796641597918 
9.831468862017724,-14.530156136758169 
9.656739396586152,-14.269133099697843 
9.472980837452653,-14.014385766225207 
9.279722683266789,-13.766767717999928 
9.076619890001037,-13.527158312229062 
8.863465973283866,-13.296444594053552 
8.640201631105406,-13.075500154255174 
8.406918195039612,-12.865161735454555 
8.163855471245723,-12.666204643929571 
7.911393847258568,-12.479318206808063 
7.650040893450618,-12.305082603379605 
7.380413049048672,-12.14394838141106 
7.1032133182567385,-11.996219842478734 
6.819206179146811,-11.862043253981335 
6.529191097531907,-11.741400540143697 
6.23397611898643,-11.634108749178104 
5.934352974445154,-11.53982522346214 
5.631074980998521,-11.458058049992589 
5.3248387650732205,-11.388181072224576 
5.016270506865426,-11.329452527266962 
4.705917037380772,-11.281036249579804 
4.394241750869866,-11.242024357231983 
4.081624962209795,-11.211460401106137 
3.7683680706163263,-11.188362093041961 
3.4547007073792404,-11.171742911169996 
3.140789953412088,-11.16063208266882 
2.826750707989322,-11.154092640754719 
2.5126563595795792,-11.151237423901103 
2.198549034076133,-11.151243018239311 
1.8844488541788171,-11.153361733575638 
1.5703618169713227,-11.156931751003723 
1.2562860693177098,-11.161385592273742 
0.9422165214609223,-11.166257047422253 
0.6281478811825858,-11.171186668090773 
0.31407631026936117,-11.175925899075244 
0,-11.180339887498949 
" />
<polyline fill="none" stroke="black" points="0,0 
0.3141073255529656,4.167559965338365e-07 
0.6282085116389162,0.001964307183050758 
0.9422912847739745,0.005891594542269018 
1.2563433721937485,0.011782125375147435 
1.570352502332888,0.019635669509568205 
1.8843064053045966,0.02945192006879351 
2.1981928133800754,0.04123049348345696 
2.5119994614678838,0.054970929506551046 
2.825714087593199,0.07067269123141191 
3.1393244333769488,0.08833516511269827 
3.4528182445148103,0.10795766099036622 
3.7661832712560437,0.12953941211663675 
4.079407268882152,0.15307957518595677 
4.392477998185341,0.1785772303679508 
4.7053832259467665,0.2060313813433638 
5.018110725414547,0.23544095534299161 
5.330648276781524,0.2668048031896002 
5.642983667662745,0.3001216993428287 
5.95510469357267,0.3353903419470782 
6.266999158402054,0.3726093528823811 
6.578654874894514,0.41177727781825146 
6.89005966512274,0.4528925862705121 
7.201201360964353,0.4959536716610996 
7.512067804577369,0.54095885138084 
7.822646848875268,0.5879063668551969 
8.132926358001637,0.6367943836129876 
8.442894207804382,0.6876209913580654 
8.752538286309484,0.7403842040439645 
9.061846494194258,0.7950819599515034 
9.370806745260143,0.8517121217693472 
9.679406966904974,0.9102724766775231 
9.98763510059471,0.9707607364338866 
10.295479102334621,1.0331745374635328 
10.602926943139911,1.0975114409511548 
10.909966609505744,1.1637689329363385 
11.216586103876683,1.231944424411798 
11.522773445115476,1.3020352514245375 
11.828516668971227,1.3740386751799472 
12.133803828546908,1.4479518821488226 
12.438622994766163,1.5237719841772999 
12.742962256839451,1.6014960185997122 
13.046809722729458,1.6811209483543568 
13.350153519615768,1.7626436621021642 
13.652981794358805,1.846060974348279 
13.955282713962987,1.9313696255665282 
14.257044466039096,2.018566282326788 
14.558255259265858,2.1076475374252404 
14.858903323850676,2.198609910017505 
15.158976911989539,2.2914498457546566 
15.458464298326069,2.3861637169221077 
15.757353780409684,2.4827478225813637 
16.055633679152876,2.5811983887146375 
16.353292339287563,2.681511568372316 
16.650318129820523,2.7836834418232805 
16.946699444487876,2.8877100167080734 
17.242424702208595,2.9935872281948934 
17.537482347537036,3.1013109391384335 
17.831860851114463,3.210876940241537 
18.125548710119563,3.3222809502196755 
18.418534448717924,3.4355186159682436 
18.710806618510432,3.55058551273265 
19.002353798980632,3.6674771442812184 
19.293164597940986,3.7861889430808797 
19.583227651978014,3.9067162704756413 
19.872531626896315,4.029054416867848 
20.16106521816147,4.153198601902209 
20.448817151341732,4.279143974652583 
20.73577618254862,4.406885613811541 
21.02193109887622,4.536418527882651 
21.307270718839376,4.667737655375531 
21.591783892810582,4.8008378650036265 
21.875459503455644,4.935713955884703 
22.158286466168118,5.0723606577440865 
22.440253729502416,5.210772631120592 
22.721350275605644,5.350944467575155 
23.001565120648138,5.492870689902179 
23.28088731525265,5.636545752343553 
23.55930594492217,5.781964040805341 
23.836810130466453,5.929119873077171 
24.11338902842709,6.078007499054248 
24.389031831501224,6.228621100962055 
24.663727768963856,6.380954793583675 
24.937466107088685,6.535002624489749 
25.21023614956756,6.690758574271083 
25.482027237928403,6.848216556773836 
25.75282875195172,7.007370419337355 
26.022630110085576,7.168213943034581 
26.29142076985904,7.330740842915047 
26.559190228294177,7.494944768250474 
26.825928022316425,7.660819302782923 
27.091623729163434,7.828357964975496 
27.356266966792354,7.9975542082656235 
27.619847394285504,8.168401421320858 
27.88235471225443,8.340892928297205 
28.143778663242376,8.515021989100001 
28.40410903212507,8.69078179964726 
28.663335646509907,8.868165492135562 
28.92144837713341,9.047166135308403 
29.17843713825703,9.227776734727026 
35.008353966037156,1.0416867168267743 
34.7000803466195,0.8247934509043873 
34.39045695802514,0.6098314299176835 
34.0794958987683,0.3968090534939712 
33.767209319632606,0.1857346454690596 
33.453609423196276,-0.023383546437971248 
33.13870846335533,-0.23053735094706695 
32.82251874484476,-0.4357186735364911 
32.5050526227577,-0.6389194967591054 
32.1863225020627,-0.8401318805556572 
31.866340837118965,-1.0393479625650501 
31.545120131189698,-1.23655995843154 
31.222672935953565,-1.431760162108925 
30.899011851014222,-1.6249409461616624 
30.574149523407986,-1.816094762062888 
30.248098647109657,-2.0052141404894055 
29.920871962536495,-2.192291691613523 
29.592482256050396,-2.377320105391825 
29.26294235945826,-2.560292151850806 
28.932265149510602,-2.741200681369383 
28.600463547398377,-2.9200386249582673 
28.26755051824809,-3.096798994536182 
27.93353907061519,-3.2714748832029255 
27.59844225597576,-3.444059465509249 
27.262273168216524,-3.6145459977235754 
26.92504494312322,-3.7829278180954935 
26.586770757867303,-3.949198347116079 
26.247463830491053,-4.1133510877749835 
25.907137419391088,-4.275379625814296 
25.56580482280028,-4.435277629979201 
25.22347937826815,-4.5930388522653445 
24.88017446213967,-4.748657128163002 
24.53590348903262,-4.90212637689793 
24.19067991131338,-5.053440601668995 
23.844517218571305,-5.2025938898824835 
23.497428937091605,-5.349580413383141 
23.149428629326813,-5.494394428681906 
22.800529893366832,-5.6370302771803384 
22.450746362407585,-5.777482385391724 
22.10009170421831,-5.915745265158867 
21.748579620607483,-6.0518135138685265 
21.39622384688742,-6.185681814662539 
21.04303815133758,-6.317344936645559 
20.68903633466656,-6.446797735089465 
20.334232229472843,-6.5740351516343924 
19.97863969970428,-6.699052214486375 
19.62227264011637,-6.821844038611629 
19.26514497572931,-6.942405825927436 
18.907270661283874,-7.06073286548962 
18.54866368069615,-7.176820533676633 
18.18933804651111,-7.290664294370221 
17.829307799355064,-7.402259699132672 
17.46858700738703,-7.511602387380641 
17.107189765749016,-7.618688086555537 
16.745130196015268,-7.7235126122904685 
16.382422445640454,-7.826071868573762 
16.01908068740686,-7.926361847908996 
15.655119118870589,-8.024378631471604 
15.290551961806795,-8.120118389261998 
14.92539346165396,-8.213577380255233 
14.559657886957263,-8.304751952547173 
14.193359528811035,-8.393638543497207 
13.82651270030033,-8.48023367986744 
13.459131735941652,-8.56453397795843 
13.091230991122826,-8.64653614374138 
12.722824841542067,-8.726236972986882 
12.353927682646248,-8.803633351390099 
11.984553929068401,-8.878722254692464 
11.614718014064461,-8.951500748799852 
11.244434388949298,-9.021965989897238 
10.873717522532019,-9.090115224559804 
10.50258190055061,-9.155945789860535 
10.131042025105906,-9.219455113474282 
9.75911241409492,-9.280640713778261 
9.386807600643557,-9.339500199949027 
9.014142132538733,-9.396031272055906 
8.64113057165992,-9.45023172115084 
8.267787493410147,-9.502099429354738 
7.894127486146459,-9.55163236994019 
7.520165150609887,-9.598828607410695 
7.145915099354915,-9.643686297576275 
6.771391956178503,-9.686203687625541 
6.396610355548658,-9.726379116194172 
6.021584942032601,-9.76421101342986 
5.646330369724522,-9.799697901053621 
5.270861301672977,-9.832838392417578 
4.895192409307928,-9.863631192559135 
4.519338371867462,-9.89207509825159 
4.1433138758241945,-9.918168998051133 
3.767133614311406,-9.941911872340288 
3.3908122865488957,-9.96330279336775 
3.0143645972686244,-9.982340925284646 
2.6378052561401164,-9.999025524177176 
2.261148977195686,-10.013355938095698 
1.8844104782554871,-10.025331607080206 
1.507604480352415,-10.03495206318219 
1.1307457071568807,-10.042216930482942 
0.7538488844014888,-10.047125925108231 
0.3769287393056265,-10.04967885523941 
0,-10.04987562112089 
" />
</svg>
