<?xml version="1.0" encoding="UTF-8" standalone="no"?>
<svg
   width="200in"
   height="200in"
   viewBox="0 0 200 200"
   viewboxxmlns="http://www.w3.org/2000/svg"
   version="1.1"
   id="svg540"
   sodipodi:docname="special_parts.svg"
   inkscape:version="1.1.2 (0a00cf5339, 2022-02-04)"
   xmlns:inkscape="http://www.inkscape.org/namespaces/inkscape"
   xmlns:sodipodi="http://sodipodi.sourceforge.net/DTD/sodipodi-0.dtd"
   xmlns="http://www.w3.org/2000/svg"
   xmlns:svg="http://www.w3.org/2000/svg"><defs
   id="defs544" />
<sodipodi:namedview
   id="namedview542"
   pagecolor="#ffffff"
   bordercolor="#666666"
   borderopacity="1.0"
   inkscape:pageshadow="2"
   inkscape:pageopacity="0.0"
   inkscape:pagecheckerboard="0"
   inkscape:document-units="in"
   showgrid="false"
   inkscape:zoom="0.045364583"
   inkscape:cx="15794.26"
   inkscape:cy="9302.4111"
   inkscape:window-width="3283"
   inkscape:window-height="1434"
   inkscape:window-x="50"
   inkscape:window-y="50"
   inkscape:window-maximized="0"
   inkscape:current-layer="svg540">
  <inkscape:grid
     type="xygrid"
     id="grid1361"
     units="in"
     spacingx="0.5"
     spacingy="0.5" />
</sodipodi:namedview>





(0, 1, 3, 2)
(2, 3, 5, 4)
2 - 3
(4, 5, 7, 6)
4 - 5
(6, 7, 9, 8)
6 - 7
(8, 9, 11, 10)
8 - 9
(10, 11, 13, 12)
10 - 11
(12, 13, 15, 14)
12 - 13
(14, 15, 17, 16)
14 - 15
(16, 17, 19, 18)
16 - 17
(18, 19, 21, 20)
18 - 19
(20, 21, 23, 22)
20 - 21



(0, 1, 2)
(2, 1, 3)
2 - 1
(2, 3, 4)
2 - 3
(4, 3, 5)
4 - 3
(4, 5, 6)
4 - 5
(6, 5, 7)
6 - 5
(6, 7, 8)
6 - 7
(8, 7, 9)
8 - 7
(8, 9, 10)
8 - 9
(10, 9, 11)
10 - 9
(10, 11, 12)
10 - 11
(12, 11, 13)
12 - 11
(13, 11, 29, 30)
13 - 11



(12, 13, 15)
(12, 15, 14)
12 - 15
(15, 13, 24)
15 - 13
(24, 13, 30, 31)
24 - 13



(18, 16, 14, 15, 23, 22, 20)
(23, 15, 24, 28)
23 - 15
(28, 24, 31, 32, 33)
28 - 24
<polygon
   stroke-width="0.1"
   fill="none"
   stroke="black"
   points=""
   id="polygon46" />
<polygon
   stroke-width="0.1"
   fill="none"
   stroke="black"
   points=""
   id="polygon88" />





23.037198180334354
8.106546737051481
<g
   id="g19982"
   style="stroke-width:0.1;stroke-miterlimit:4;stroke-dasharray:none"
   transform="translate(125.77491,-32.122677)">
  <polygon
     stroke-width="0.1"
     fill="none"
     stroke="#000000"
     points="58.383826,-18.350536 58.034236,-18.347642 57.682678,-18.341356 57.329217,-18.331756 56.973927,-18.318917 56.616884,-18.302916 56.258168,-18.283828 55.897865,-18.261729 55.536064,-18.236696 55.172859,-18.208803 54.808345,-18.178125 54.442623,-18.144737 54.075798,-18.108713 53.707975,-18.070125 53.339264,-18.029046 52.969778,-17.985549 52.599629,-17.939704 52.228935,-17.891582 51.857813,-17.841251 51.486383,-17.78878 51.114765,-17.734237 50.74308,-17.677687 50.371451,-17.619195 50,-17.558826 50,-12.400522 50.31947,-12.452403 50.639128,-12.50259 50.958893,-12.551029 51.278681,-12.597663 51.59841,-12.642433 51.917999,-12.68528 52.237367,-12.726144 52.556433,-12.764962 52.875118,-12.801671 53.193344,-12.836209 53.511034,-12.868509 53.828112,-12.898506 54.144505,-12.926135 54.460139,-12.951327 54.774945,-12.974016 55.088855,-12.994135 55.401801,-13.011614 55.71372,-13.026385 56.02455,-13.03838 56.334232,-13.04753 56.642708,-13.053768 56.949925,-13.057024 57.25583,-13.057232 57.560374,-13.054324 57.863512,-13.048233 58.165199,-13.038894 58.465394,-13.026241 58.764061,-13.01021 59.061164,-12.990739 59.35667,-12.967767 59.650551,-12.941231 59.942779,-12.911076 60.233332,-12.877242 60.522189,-12.839675 60.809331,-12.798322 61.094743,-12.753132 61.378413,-12.704056 61.66033,-12.651046 61.940488,-12.59406 62.218882,-12.533055 62.495508,-12.467992 62.770368,-12.398836 63.043463,-12.325554 63.314799,-12.248114 63.584381,-12.166491 63.852218,-12.08066 64.118321,-11.990601 64.382702,-11.896296 64.645375,-11.797732 64.906356,-11.694898 65.165662,-11.587788 65.423311,-11.476399 65.679324,-11.360731 65.93372,-11.240788 66.186521,-11.116578 66.437751,-10.988112 66.687432,-10.855407 66.935588,-10.71848 67.182244,-10.577355 67.427424,-10.432058 67.671153,-10.282619 67.913456,-10.129071 68.154357,-9.9714527 68.393881,-9.8098038 68.632052,-9.6441689 68.868895,-9.474596 69.104431,-9.3011363 69.338684,-9.1238442 69.571675,-8.9427775 69.803424,-8.7579972 70.033952,-8.5695672 70.263277,-8.3775546 70.491416,-8.1820292 70.718385,-7.9830637 70.944199,-7.7807334 71.16887,-7.5751162 71.392411,-7.3662924 71.614831,-7.1543446 71.836139,-6.9393577 72.056341,-6.7214185 72.275442,-6.5006159 72.493446,-6.2770404 72.710354,-6.0507844 72.926166,-5.8219415 73.140879,-5.5906068 73.354491,-5.3568766 73.566995,-5.1208483 73.778385,-4.88262 73.988651,-4.6422907 74.197784,-4.3999598 74.40577,-4.1557273 74.612597,-3.9096931 74.818248,-3.6619574 75.022709,-3.4126203 75.22596,-3.1617814 75.427982,-2.9095399 75.628756,-2.6559944 75.82826,-2.4012426 76.026471,-2.1453812 79.54519,-5.9172142 79.31476,-6.2147416 79.082919,-6.5110169 78.849713,-6.8059104 78.615187,-7.0992913 78.379384,-7.3910285 78.142347,-7.6809906 77.904117,-7.9690463 77.664731,-8.2550644 77.424229,-8.5389144 77.182643,-8.8204663 76.940008,-9.0995913 76.696354,-9.3761617 76.451708,-9.6500512 76.206097,-9.9211349 75.959542,-10.18929 75.712065,-10.454396 75.46368,-10.716334 75.214402,-10.974988 74.964242,-11.230244 74.713207,-11.481992 74.4613,-11.730123 74.208522,-11.974534 73.954871,-12.215121 73.700339,-12.451788 73.444918,-12.68444 73.188594,-12.912985 72.931351,-13.137338 72.673168,-13.357414 72.414022,-13.573135 72.153888,-13.784427 71.892735,-13.991217 71.630531,-14.19344 71.367241,-14.391035 71.102826,-14.583943 70.837246,-14.772111 70.570458,-14.955492 70.302416,-15.134042 70.033074,-15.307722 69.762382,-15.476497 69.490289,-15.640338 69.216745,-15.799219 68.941696,-15.953121 68.665088,-16.102028 68.386867,-16.245928 68.106979,-16.384816 67.82537,-16.518689 67.541985,-16.647551 67.256772,-16.771407 66.969677,-16.89027 66.680649,-17.004155 66.389639,-17.113081 66.096598,-17.217072 65.80148,-17.316157 65.504242,-17.410365 65.204841,-17.499732 64.903241,-17.584297 64.599404,-17.664101 64.2933,-17.73919 63.9849,-17.80961 63.674178,-17.875414 63.361114,-17.936655 63.045692,-17.993388 62.727898,-18.045673 62.407726,-18.093571 62.085171,-18.137143 61.760235,-18.176455 61.432924,-18.211574 61.103251,-18.242566 60.77123,-18.269502 60.436884,-18.292453 60.10024,-18.311489 59.761328,-18.326684 59.420186,-18.338112 59.076856,-18.345846 58.731385,-18.349962 "
     id="polygon132-6"
     transform="rotate(-21.474733,315.50846,446.1927)"
     style="fill:#a8a8a8;fill-opacity:1;stroke:#000001;stroke-width:0.1;stroke-miterlimit:4;stroke-dasharray:none;stroke-opacity:1" />
  <path
     style="fill:#fefefe;fill-opacity:1;stroke:#000001;stroke-width:0.1;stroke-linecap:butt;stroke-linejoin:miter;stroke-miterlimit:4;stroke-dasharray:none;stroke-opacity:1"
     d="m -101.34337,111.83544 c 0.93171,-0.5762 2.338254,-1.33595 2.338254,-1.33595 1.436309,1.71079 2.857739,2.93375 3.961867,3.77363 0,0 -2.146024,0.99254 -4.411707,2.36253 z"
     id="path9723-2"
     sodipodi:nodetypes="ccccc" />
  <path
     style="fill:#fefefe;fill-opacity:1;stroke:#000001;stroke-width:0.1;stroke-linecap:butt;stroke-linejoin:miter;stroke-miterlimit:4;stroke-dasharray:none;stroke-opacity:1"
     d="m -69.588901,111.85205 c -0.931261,-0.5769 -2.337228,-1.33772 -2.337228,-1.33772 -1.437612,1.7097 -2.859974,2.93157 -3.964741,3.77062 0,0 2.145268,0.99416 4.409905,2.36588 z"
     id="path9723-4-1"
     sodipodi:nodetypes="ccccc" />
</g>
<g
   id="g20016"
   transform="translate(125.77491,-35.810176)"
   style="stroke-width:0.1;stroke-miterlimit:4;stroke-dasharray:none">
  <polygon
     stroke-width="0.1"
     fill="none"
     stroke="#000000"
     points="89.716933,-71.907697 90.182121,-71.937925 90.648039,-71.967813 91.114571,-71.997395 91.581599,-72.026707 92.049,-72.055786 92.516653,-72.084677 92.984436,-72.113425 90.474398,-82.980425 90.05823,-82.954842 89.642096,-82.929103 89.226025,-82.90315 88.810046,-82.87693 88.394184,-82.850393 87.978469,-82.823494 87.562924,-82.796194 87.147575,-82.768455 86.732445,-82.740245 86.317558,-82.711537 85.902933,-82.682306 85.488592,-82.652531 85.074551,-82.622195 84.660828,-82.591286 84.247436,-82.559794 83.834389,-82.527711 83.421698,-82.495035 83.009372,-82.461764 82.597417,-82.427899 82.185839,-82.393446 81.774642,-82.358411 81.363825,-82.322801 80.95339,-82.286627 80.543332,-82.249901 80.133649,-82.212636 79.724333,-82.174846 79.315377,-82.136546 78.906773,-82.097753 78.498509,-82.058482 78.090574,-82.01875 77.682955,-81.978575 77.275639,-81.937973 76.86861,-81.896961 76.461854,-81.855556 76.055356,-81.813774 75.649098,-81.77163 75.243065,-81.729139 74.837241,-81.686315 74.431609,-81.643172 74.026153,-81.599721 73.620858,-81.555974 73.215708,-81.51194 72.810688,-81.467629 72.405783,-81.423048 72.000979,-81.378204 71.596262,-81.333102 71.191619,-81.287745 70.787036,-81.242137 70.3825,-81.196279 69.977999,-81.150171 69.573521,-81.10381 69.169053,-81.057196 68.764582,-81.010322 68.360097,-80.963185 67.955586,-80.915776 67.551035,-80.868088 67.146433,-80.820112 66.741766,-80.771836 66.337023,-80.723248 65.93219,-80.674335 65.527254,-80.625083 65.122203,-80.575476 64.717024,-80.525498 64.311703,-80.475131 63.906229,-80.424358 63.50059,-80.373159 63.094773,-80.321516 62.688768,-80.269408 62.282565,-80.216817 61.876153,-80.163722 61.469524,-80.110105 61.062671,-80.055946 60.655588,-80.001226 60.248267,-79.945929 59.840707,-79.890038 59.432903,-79.833537 59.024856,-79.776413 58.616564,-79.718654 58.208031,-79.660249 57.799257,-79.601191 57.39025,-79.541475 56.981013,-79.481098 56.571555,-79.420058 56.161884,-79.35836 55.75201,-79.29601 55.341943,-79.233016 54.931697,-79.169392 54.521284,-79.105155 54.110718,-79.040324 53.700013,-78.974924 53.289184,-78.908984 52.878247,-78.842535 52.467218,-78.775616 52.056113,-78.708266 51.644948,-78.640532 51.233739,-78.572462 50.822501,-78.504111 50.41125,-78.435538 50,-78.366805 50,-67.213688 50.462252,-67.290954 50.924411,-67.368051 51.386366,-67.444907 51.848009,-67.521454 52.30923,-67.597625 52.769923,-67.67336 53.229979,-67.748599 53.689295,-67.82329 54.147768,-67.897381 54.605296,-67.970827 55.061782,-68.043584 55.517132,-68.115614 55.971254,-68.186882 56.424062,-68.257356 56.875473,-68.32701 57.325408,-68.395819 57.773795,-68.463765 58.220566,-68.53083 58.665659,-68.597002 59.109018,-68.662273 59.550594,-68.726637 59.990343,-68.790091 60.42823,-68.852638 60.864225,-68.914281 61.298307,-68.975028 61.730463,-69.03489 62.160686,-69.093878 62.588979,-69.15201 63.015351,-69.209302 63.439821,-69.265776 63.862415,-69.321453 64.283167,-69.376358 64.702122,-69.430516 65.11933,-69.483955 65.53485,-69.536703 65.94875,-69.588788 66.361105,-69.640242 66.771998,-69.691093 67.181517,-69.741373 67.58976,-69.791112 67.99683,-69.84034 68.402836,-69.889086 68.807893,-69.93738 69.21212,-69.985249 69.615643,-70.032719 70.018589,-70.079816 70.421089,-70.126563 70.823279,-70.172982 71.225295,-70.219094 71.627273,-70.264915 72.029353,-70.310461 72.431673,-70.355747 72.834368,-70.400783 73.237576,-70.445578 73.64143,-70.49014 74.046061,-70.534472 74.451595,-70.578576 74.858156,-70.622453 75.265862,-70.6661 75.674826,-70.709514 76.085155,-70.752687 76.496951,-70.795613 76.910307,-70.838281 77.325311,-70.880681 77.742043,-70.922801 78.160575,-70.964627 78.58097,-71.006145 79.003285,-71.04734 79.427568,-71.088197 79.853858,-71.1287 80.282186,-71.168834 80.712574,-71.208582 81.145036,-71.24793 81.579577,-71.286862 82.016195,-71.325365 82.454878,-71.363425 82.895608,-71.401031 83.338356,-71.438171 83.783089,-71.474836 84.229764,-71.511019 84.678331,-71.546714 85.128733,-71.581916 85.580909,-71.616625 86.034787,-71.65084 86.490293,-71.684565 86.947345,-71.717804 87.405857,-71.750566 87.865736,-71.782862 88.326886,-71.814705 88.789206,-71.846111 89.252591,-71.877101 "
     id="polygon144-3"
     transform="rotate(6.5184811,-1211.4087,-1377.4669)"
     style="fill:#a8a8a8;fill-opacity:1;stroke:#000001;stroke-width:0.1;stroke-miterlimit:4;stroke-dasharray:none;stroke-opacity:1" />
  <path
     style="fill:#fefefe;fill-opacity:1;stroke:#000001;stroke-width:0.1;stroke-linecap:butt;stroke-linejoin:miter;stroke-miterlimit:4;stroke-dasharray:none;stroke-opacity:1"
     d="m -98.00015,56.104233 c -1.510241,2.843701 -3.22816,3.280716 -6.96504,3.292221 l -0.92039,8.072682 -1.01414,0.04648 1.26614,-11.080994 c 2.016,-0.133884 7.633131,-0.330425 7.633131,-0.330425 z"
     id="path3384-3"
     sodipodi:nodetypes="cccccc" />
  <path
     style="fill:#fefefe;fill-opacity:1;stroke:#000001;stroke-width:0.1;stroke-linecap:butt;stroke-linejoin:miter;stroke-miterlimit:4;stroke-dasharray:none;stroke-opacity:1"
     d="m -72.529766,56.112112 c 1.509068,2.844322 3.226811,3.282043 6.963678,3.295083 l 0.916779,8.073095 1.014113,0.04689 -1.261582,-11.081512 c -2.01594,-0.134707 -7.632987,-0.333564 -7.632987,-0.333564 z"
     id="path3384-6-3"
     sodipodi:nodetypes="cccccc" />
</g>
<g
   id="g20006"
   transform="translate(125.77491,-34.560177)"
   style="stroke-width:0.1;stroke-miterlimit:4;stroke-dasharray:none">
  <polygon
     stroke-width="0.1"
     fill="none"
     stroke="#000000"
     points="73.698921,-44.237995 74.076391,-44.184138 74.455179,-44.127201 74.83544,-44.067184 75.217319,-44.004092 75.600949,-43.937931 75.986455,-43.86871 76.373952,-43.796441 76.763541,-43.721138 77.155314,-43.642819 77.549351,-43.561504 77.94572,-43.477217 78.344477,-43.389985 78.745666,-43.299838 79.14932,-43.206809 79.555461,-43.110934 79.964097,-43.012252 80.375229,-42.910807 80.788842,-42.806645 81.204915,-42.699814 81.623413,-42.590367 82.044293,-42.478359 82.467503,-42.36385 82.89298,-42.2469 83.320652,-42.127574 83.75044,-42.00594 84.182257,-41.882067 84.616007,-41.756029 85.051589,-41.627902 85.488893,-41.497764 85.927804,-41.365696 86.368201,-41.23178 86.80996,-41.096102 87.252948,-40.958749 87.697031,-40.819812 88.14207,-40.679381 88.587923,-40.53755 89.034444,-40.394414 89.481486,-40.250069 89.9289,-40.104612 90.376536,-39.958144 90.82424,-39.810763 91.271861,-39.662572 92.862664,-49.691966 92.402688,-49.844237 91.942604,-49.99566 91.482555,-50.146131 91.022681,-50.295552 90.563122,-50.443822 90.104016,-50.590845 89.645501,-50.736522 89.18771,-50.880759 88.730775,-51.023463 88.274825,-51.164541 87.819984,-51.303905 87.366374,-51.441467 86.914112,-51.577141 86.463307,-51.710844 86.014066,-51.842494 85.56649,-51.972014 85.120672,-52.099328 84.676698,-52.224363 84.23465,-52.347047 83.794598,-52.467314 83.356609,-52.585098 82.920736,-52.700338 82.487029,-52.812974 82.055525,-52.92295 81.626254,-53.030214 81.199235,-53.134716 80.774477,-53.236409 80.35198,-53.335249 79.931732,-53.431197 79.513714,-53.524214 79.097891,-53.614267 78.684223,-53.701324 78.272655,-53.785357 77.863123,-53.866342 77.455552,-53.944255 77.049859,-54.019079 76.645947,-54.090797 76.243711,-54.159395 75.843038,-54.224862 75.443803,-54.28719 75.045873,-54.346373 74.64911,-54.402409 74.253365,-54.455296 73.858483,-54.505035 73.464306,-54.55163 73.070666,-54.595086 72.677396,-54.63541 72.284322,-54.672611 71.891269,-54.706701 71.498061,-54.737691 71.104521,-54.765596 70.710472,-54.790431 70.31574,-54.812213 69.920154,-54.830959 69.523543,-54.846689 69.125745,-54.859425 68.726601,-54.869186 68.325958,-54.875998 67.92367,-54.879882 67.5196,-54.880866 67.113618,-54.878975 66.705602,-54.874236 66.295442,-54.866679 65.883035,-54.856333 65.468292,-54.843229 65.051129,-54.8274 64.631478,-54.808878 64.209278,-54.7877 63.784483,-54.7639 63.357053,-54.737516 62.926964,-54.708587 62.494199,-54.677153 62.058754,-54.643257 61.620636,-54.60694 61.179861,-54.568248 60.736457,-54.527227 60.290459,-54.483924 59.841915,-54.438389 59.390881,-54.390673 58.937422,-54.340827 58.481612,-54.288907 58.023533,-54.234967 57.563274,-54.179065 57.100934,-54.121259 56.636616,-54.06161 56.170432,-54.000179 55.702499,-53.93703 55.23294,-53.872227 54.761883,-53.805837 54.289461,-53.737927 53.815813,-53.668567 53.341078,-53.597826 52.865402,-53.525776 52.388933,-53.452491 51.91182,-53.378044 51.434217,-53.30251 50.956275,-53.225965 50.478152,-53.148487 50,-53.070154 50,-42.915381 50.46531,-42.991621 50.930574,-43.067046 51.395628,-43.141582 51.860305,-43.215152 52.32444,-43.287684 52.787872,-43.359103 53.250438,-43.429337 53.711982,-43.498316 54.172347,-43.56597 54.631383,-43.63223 55.088942,-43.697029 55.544881,-43.760301 55.999063,-43.821981 56.451354,-43.882006 56.90163,-43.940315 57.349769,-43.996847 57.79566,-44.051544 58.239197,-44.104348 58.680282,-44.155203 59.118826,-44.204056 59.55475,-44.250854 59.98798,-44.295545 60.418457,-44.338081 60.846129,-44.378413 61.270953,-44.416494 61.6929,-44.452281 62.111951,-44.485729 62.528097,-44.516796 62.941341,-44.545442 63.351699,-44.571628 63.759198,-44.595315 64.163877,-44.616468 64.565788,-44.635051 64.964994,-44.65103 65.36157,-44.664372 65.755603,-44.675046 66.147194,-44.683021 66.536452,-44.688267 66.923499,-44.690757 67.308468,-44.690462 67.691499,-44.687358 68.072745,-44.681417 68.452366,-44.672616 68.83053,-44.660931 69.207413,-44.64634 69.583195,-44.628822 69.958063,-44.608356 70.332207,-44.584923 70.705821,-44.558505 71.0791,-44.529085 71.45224,-44.496648 71.825436,-44.46118 72.198881,-44.422669 72.572768,-44.381103 72.947283,-44.336473 73.322609,-44.288772 "
     id="polygon140-3"
     transform="rotate(-4.4958831,1675.9245,2010.9803)"
     style="fill:#a8a8a8;fill-opacity:1;stroke:#000001;stroke-width:0.1;stroke-miterlimit:4;stroke-dasharray:none;stroke-opacity:1" />
  <path
     style="fill:#fefefe;fill-opacity:1;stroke:#000001;stroke-width:0.1;stroke-linecap:butt;stroke-linejoin:miter;stroke-miterlimit:4;stroke-dasharray:none;stroke-opacity:1"
     d="m -105.80753,80.490984 -0.98511,0.242091 0.796,10.123528 0.98416,-0.243429 z"
     id="path4336-8"
     sodipodi:nodetypes="ccccc" />
  <path
     style="fill:#fefefe;fill-opacity:1;stroke:#000001;stroke-width:0.1;stroke-linecap:butt;stroke-linejoin:miter;stroke-miterlimit:4;stroke-dasharray:none;stroke-opacity:1"
     d="m -64.782412,80.498538 0.985033,0.242425 -0.799425,10.123259 -0.984074,-0.243763 z"
     id="path4336-3-8"
     sodipodi:nodetypes="ccccc" />
</g>
<g
   id="g20001"
   transform="translate(125.77491,-33.935177)"
   style="stroke-width:0.1;stroke-miterlimit:4;stroke-dasharray:none">
  <polygon
     stroke-width="0.1"
     fill="none"
     stroke="#000000"
     points="73.128036,-36.306988 73.485316,-36.21784 73.843533,-36.124774 74.202818,-36.027791 74.563292,-35.9269 74.925066,-35.822113 75.288245,-35.713443 75.65292,-35.600911 76.019175,-35.484541 76.387085,-35.364359 76.756711,-35.240398 77.128106,-35.112694 77.501313,-34.981287 77.876364,-34.846221 78.253281,-34.707545 78.632075,-34.565313 79.012749,-34.41958 79.395294,-34.270409 79.779694,-34.117863 80.165921,-33.962013 80.553941,-33.80293 80.94371,-33.640692 81.335175,-33.475378 81.728277,-33.307072 82.122947,-33.135862 82.519112,-32.961837 82.916689,-32.785091 83.315592,-32.605721 83.715725,-32.423825 84.11699,-32.239506 84.519283,-32.052868 84.922494,-31.864017 85.32651,-31.673064 85.731214,-31.480119 86.136484,-31.285295 86.542197,-31.088706 86.948227,-30.890468 87.354444,-30.690699 87.76072,-30.489517 88.166922,-30.28704 88.572917,-30.08339 88.978573,-29.878685 90.49639,-34.738051 90.075436,-34.950473 89.654127,-35.1618 89.232599,-35.371907 88.810989,-35.580669 88.389431,-35.787964 87.968059,-35.99367 87.547005,-36.197665 87.126398,-36.399829 86.706366,-36.600045 86.287033,-36.798195 85.868517,-36.994164 85.450937,-37.18784 85.034404,-37.379112 84.619025,-37.567872 84.204901,-37.754016 83.79213,-37.937439 83.3808,-38.118043 82.970995,-38.29573 82.562792,-38.470408 82.15626,-38.641985 81.75146,-38.810376 81.348445,-38.975497 80.947261,-39.13727 80.547943,-39.295619 80.150519,-39.450472 79.755005,-39.601762 79.36141,-39.749426 78.969732,-39.893404 78.579957,-40.033643 78.192064,-40.17009 77.80602,-40.302701 77.42178,-40.431433 77.039291,-40.556249 76.658487,-40.677115 76.279294,-40.794003 75.901626,-40.906888 75.525387,-41.01575 75.150472,-41.120573 74.776766,-41.221344 74.404144,-41.318055 74.032473,-41.410703 73.661614,-41.499287 73.291418,-41.58381 72.921729,-41.664279 72.552389,-41.740704 72.18323,-41.813098 71.814084,-41.881478 71.444777,-41.945863 71.075134,-42.006275 70.70498,-42.062738 70.334136,-42.11528 69.962429,-42.16393 69.589684,-42.208718 69.21573,-42.249678 68.840401,-42.286845 68.463535,-42.320256 68.084974,-42.349948 67.704571,-42.375962 67.322181,-42.398339 66.937671,-42.41712 66.550916,-42.43235 66.161799,-42.444073 65.770215,-42.452335 65.376066,-42.457183 64.979269,-42.458665 64.579748,-42.456829 64.177441,-42.451727 63.772295,-42.443408 63.36427,-42.431924 62.953337,-42.41733 62.539478,-42.399678 62.122686,-42.379024 61.702966,-42.355423 61.280333,-42.328933 60.854815,-42.299612 60.426447,-42.267519 59.995276,-42.232714 59.56136,-42.195258 59.124765,-42.155214 58.685567,-42.112644 58.243849,-42.067614 57.799705,-42.020188 57.353236,-41.970433 56.90455,-41.918417 56.453763,-41.864208 56.000997,-41.807874 55.546381,-41.749488 55.090048,-41.689119 54.63214,-41.626839 54.1728,-41.562723 53.712177,-41.496843 53.250425,-41.429274 52.7877,-41.360091 52.324162,-41.28937 51.859972,-41.217187 51.395295,-41.143619 50.930296,-41.068744 50.465142,-40.992638 50,-40.915381 50,-35.824487 50.448239,-35.898938 50.896487,-35.972282 51.344582,-36.044444 51.792362,-36.115348 52.239665,-36.184921 52.686332,-36.253088 53.132206,-36.319776 53.577131,-36.384911 54.020954,-36.448421 54.463527,-36.510235 54.904705,-36.570282 55.344347,-36.628491 55.782317,-36.684793 56.218484,-36.739119 56.652723,-36.791402 57.084915,-36.841575 57.514947,-36.889571 57.942714,-36.935327 58.368117,-36.978778 58.791066,-37.01986 59.211479,-37.058513 59.629282,-37.094675 60.04441,-37.128287 60.456809,-37.159289 60.866431,-37.187623 61.273241,-37.213232 61.677214,-37.236061 62.078335,-37.256055 62.476598,-37.273159 62.872011,-37.287321 63.26459,-37.298488 63.654364,-37.30661 64.041373,-37.311637 64.425667,-37.313518 64.807308,-37.312207 65.186369,-37.307655 65.562932,-37.299817 65.937092,-37.288646 66.308952,-37.2741 66.678625,-37.256134 67.046235,-37.234706 67.411912,-37.209776 67.775795,-37.181304 68.138031,-37.14925 68.498773,-37.113578 68.858178,-37.074253 69.21641,-37.03124 69.573636,-36.984507 69.930026,-36.934024 70.285751,-36.879762 70.640984,-36.821694 70.995896,-36.759797 71.350661,-36.69405 71.705445,-36.624432 72.060415,-36.550929 72.415734,-36.473527 72.771557,-36.392215 "
     id="polygon138-9"
     transform="rotate(-8.6442431,851.42062,1056.2827)"
     style="fill:#a8a8a8;fill-opacity:1;stroke:#000001;stroke-width:0.1;stroke-miterlimit:4;stroke-dasharray:none;stroke-opacity:1" />
  <path
     style="fill:#fefefe;fill-opacity:1;stroke:#000001;stroke-width:0.1;stroke-linecap:butt;stroke-linejoin:miter;stroke-miterlimit:4;stroke-dasharray:none;stroke-opacity:1"
     d="m -104.83962,91.692732 -0.96428,0.307925 0.76515,5.033066 0.96874,-0.314624 z"
     id="path4721-7"
     sodipodi:nodetypes="ccccc" />
  <path
     style="fill:#fefefe;fill-opacity:1;stroke:#000001;stroke-width:0.1;stroke-linecap:butt;stroke-linejoin:miter;stroke-miterlimit:4;stroke-dasharray:none;stroke-opacity:1"
     d="m -65.803953,91.71241 0.964021,0.308734 -0.76938,5.032422 -0.968475,-0.315437 z"
     id="path4721-0-5"
     sodipodi:nodetypes="ccccc" />
</g>
<g
   id="g19992"
   transform="translate(125.77491,-33.310177)"
   style="stroke-width:0.1;stroke-miterlimit:4;stroke-dasharray:none">
  <polygon
     stroke-width="0.1"
     fill="none"
     stroke="#000000"
     points="76.504595,-24.181442 76.839796,-24.006938 77.175991,-23.828849 77.513165,-23.647252 77.8513,-23.46223 78.190368,-23.273869 78.530335,-23.082257 78.871163,-22.887486 79.212806,-22.689653 79.555213,-22.488856 79.898328,-22.285196 80.242089,-22.078778 80.58643,-21.869709 80.931279,-21.658098 81.276563,-21.444056 81.622202,-21.227697 81.968114,-21.009136 82.314213,-20.788489 82.66041,-20.565875 83.006615,-20.341414 83.352733,-20.115226 83.698669,-19.887431 84.044326,-19.658151 84.389605,-19.42751 84.734408,-19.195627 85.078635,-18.962626 88.076839,-25.443088 87.700562,-25.697796 87.323674,-25.951295 86.946295,-26.203447 86.568539,-26.454116 86.190525,-26.703164 85.812365,-26.950455 85.434173,-27.195852 85.05606,-27.439222 84.678132,-27.68043 84.300495,-27.919344 83.923251,-28.155833 83.546497,-28.389769 83.170327,-28.621024 82.79483,-28.849475 82.42009,-29.075 82.046186,-29.297479 81.673192,-29.516796 81.301176,-29.732839 80.930199,-29.945498 80.560315,-30.154666 80.191572,-30.360242 79.824011,-30.562126 79.457666,-30.760224 79.092561,-30.954446 78.728714,-31.144706 78.366133,-31.330922 78.00482,-31.513017 77.644767,-31.690918 77.285956,-31.864559 76.928361,-32.033877 76.571948,-32.198814 76.216674,-32.359317 75.862484,-32.515338 75.509318,-32.666836 75.157105,-32.813772 74.805766,-32.956115 74.455212,-33.093838 74.105348,-33.226917 73.756069,-33.355336 73.407266,-33.479082 73.058818,-33.598149 72.710601,-33.712534 72.362486,-33.822238 72.014334,-33.927268 71.666007,-34.027635 71.317358,-34.123354 70.968242,-34.214444 70.618506,-34.300928 70.268001,-34.382833 69.916575,-34.460188 69.564074,-34.533028 69.21035,-34.601388 68.855252,-34.665308 68.498636,-34.72483 68.14036,-34.779999 67.780285,-34.830862 67.41828,-34.877468 67.054219,-34.919869 66.687981,-34.958117 66.319455,-34.992267 65.948537,-35.022377 65.57513,-35.048502 65.199148,-35.070704 64.820513,-35.089041 64.439155,-35.103577 64.055018,-35.114373 63.668053,-35.121493 63.278221,-35.125001 62.885494,-35.124964 62.489855,-35.121446 62.091296,-35.114516 61.689821,-35.10424 61.285443,-35.090688 60.878183,-35.073928 60.468076,-35.054029 60.055164,-35.031063 59.639498,-35.005099 59.22114,-34.97621 58.800159,-34.944467 58.376633,-34.909942 57.95065,-34.872709 57.522303,-34.832841 57.091693,-34.790411 56.658931,-34.745494 56.22413,-34.698164 55.787414,-34.648496 55.348909,-34.596565 54.908749,-34.542447 54.467072,-34.486217 54.024021,-34.427952 53.579742,-34.367726 53.134387,-34.305617 52.688109,-34.2417 52.241066,-34.176052 51.793416,-34.108748 51.345321,-34.039864 50.896945,-33.969475 50.448449,-33.897658 50,-33.824487 50,-26.684067 50.410246,-26.750995 50.820546,-26.816665 51.230757,-26.88101 51.640739,-26.943959 52.050351,-27.005444 52.459454,-27.065395 52.867909,-27.123742 53.275583,-27.180415 53.682341,-27.235344 54.088054,-27.288459 54.492594,-27.33969 54.89584,-27.388967 55.297671,-27.43622 55.697972,-27.48138 56.096634,-27.524377 56.493551,-27.565142 56.888624,-27.603607 57.281759,-27.639702 57.672869,-27.67336 58.061871,-27.704512 58.448692,-27.733093 58.833263,-27.759034 59.215525,-27.782269 59.595425,-27.802733 59.972918,-27.820361 60.347966,-27.835087 60.720542,-27.846848 61.090625,-27.855581 61.458202,-27.861222 61.823271,-27.86371 62.185836,-27.862984 62.545913,-27.858984 62.903523,-27.851649 63.258698,-27.840922 63.611478,-27.826745 63.961911,-27.809061 64.310054,-27.787815 64.655972,-27.762953 64.999736,-27.734422 65.341427,-27.702171 65.681131,-27.66615 66.018941,-27.626309 66.354958,-27.582603 66.689285,-27.534987 67.022034,-27.483418 67.353318,-27.427854 67.683255,-27.368259 68.011967,-27.304595 68.339578,-27.236829 68.666213,-27.164931 68.991998,-27.088873 69.317061,-27.008629 69.641527,-26.924179 69.965522,-26.835503 70.289169,-26.742588 70.61259,-26.645422 70.935902,-26.543998 71.259219,-26.438313 71.58265,-26.328366 71.906302,-26.214164 72.230273,-26.095714 72.554659,-25.97303 72.879545,-25.84613 73.205014,-25.715036 73.531141,-25.579773 73.857993,-25.440374 74.18563,-25.296874 74.514106,-25.149311 74.843466,-24.997732 75.173748,-24.842185 75.504983,-24.682722 75.837193,-24.519403 76.170395,-24.352287 "
     id="polygon136-4"
     transform="rotate(-12.386473,580.03632,745.38793)"
     style="fill:#a8a8a8;fill-opacity:1;stroke:#000001;stroke-width:0.1;stroke-miterlimit:4;stroke-dasharray:none;stroke-opacity:1" />
  <path
     style="fill:#fefefe;fill-opacity:1;stroke:#000001;stroke-width:0.1;stroke-linecap:butt;stroke-linejoin:miter;stroke-miterlimit:4;stroke-dasharray:none;stroke-opacity:1"
     d="m -103.2754,104.98278 -1.53166,-6.974212 0.94615,-0.377196 c 0.53274,2.499878 1.17972,4.884578 1.94007,6.816528 z"
     id="path7727-18"
     sodipodi:nodetypes="ccccc" />
  <path
     style="fill:#fefefe;fill-opacity:1;stroke:#000001;stroke-width:0.1;stroke-linecap:butt;stroke-linejoin:miter;stroke-miterlimit:4;stroke-dasharray:none;stroke-opacity:1"
     d="m -67.357024,104.99997 1.532985,-6.973922 -0.94608,-0.377376 c -0.533215,2.499778 -1.180645,4.884358 -1.941366,6.816158 z"
     id="path7727-1-5"
     sodipodi:nodetypes="ccccc" />
</g>
<g
   id="g19987"
   transform="translate(125.73325,-32.685177)"
   style="stroke-width:0.1;stroke-miterlimit:4;stroke-dasharray:none">
  <polygon
     stroke-width="0.1"
     fill="none"
     stroke="#000000"
     points="72.999481,-22.761695 72.690217,-22.927401 72.380742,-23.088237 72.070984,-23.244173 71.760866,-23.395187 71.450307,-23.541261 71.13922,-23.68238 70.827516,-23.818537 70.515103,-23.949728 70.201885,-24.075954 69.887762,-24.19722 69.572636,-24.313539 69.256403,-24.424923 68.938962,-24.531392 68.62021,-24.632969 68.300044,-24.729682 67.978362,-24.82156 67.655064,-24.908639 67.330051,-24.990956 67.003228,-25.068551 66.674501,-25.14147 66.343781,-25.209759 66.010983,-25.273467 65.676027,-25.332646 65.338837,-25.387352 64.999344,-25.43764 64.657482,-25.483569 64.313196,-25.525199 63.966433,-25.562594 63.617149,-25.595815 63.265308,-25.624929 62.910879,-25.650002 62.553841,-25.671102 62.194178,-25.688297 61.831884,-25.701656 61.466959,-25.711251 61.099413,-25.717153 60.729262,-25.719433 60.356531,-25.718164 59.981251,-25.71342 59.603462,-25.705275 59.223211,-25.693801 58.840552,-25.679074 58.455548,-25.661168 58.068266,-25.640159 57.678782,-25.616122 57.287177,-25.589132 56.89354,-25.559264 56.497963,-25.526595 56.100548,-25.491199 55.701399,-25.453153 55.300625,-25.412532 54.898341,-25.369411 54.494668,-25.323866 54.089727,-25.275971 53.683647,-25.225802 53.276557,-25.173432 52.868592,-25.118937 52.459887,-25.06239 52.050581,-25.003863 51.640814,-24.94343 51.230729,-24.881163 50.820469,-24.817133 50.410178,-24.751411 50,-24.684067 50,-19.558826 50.371357,-19.619777 50.742835,-19.679223 51.114317,-19.7371 51.485685,-19.793345 51.856822,-19.847891 52.227612,-19.900673 52.597941,-19.951624 52.967694,-20.000677 53.336761,-20.047764 53.705033,-20.092818 54.072402,-20.135769 54.438765,-20.176548 54.80402,-20.215086 55.16807,-20.251314 55.53082,-20.285162 55.892181,-20.316559 56.252065,-20.345437 56.610392,-20.371725 56.967082,-20.395353 57.322064,-20.416251 57.67527,-20.434351 58.026636,-20.449582 58.376106,-20.461876 58.723628,-20.471164 59.069155,-20.477377 59.412646,-20.480448 59.754068,-20.48031 60.09339,-20.476896 60.430591,-20.470141 60.765653,-20.459978 61.098567,-20.446345 61.429326,-20.429178 61.757933,-20.408415 62.084395,-20.383994 62.408726,-20.355857 62.730943,-20.323945 63.051072,-20.288202 63.369144,-20.248571 63.685193,-20.205 63.99926,-20.157436 64.31139,-20.105831 64.621634,-20.050136 64.930045,-19.990306 65.236681,-19.926298 65.541605,-19.858071 65.844881,-19.785588 66.146576,-19.708813 66.446761,-19.627715 66.745509,-19.542263 67.042893,-19.452432 67.338988,-19.3582 67.633871,-19.259546 67.927617,-19.156456 68.220303,-19.048917 68.512005,-18.936921 68.802798,-18.820463 69.092756,-18.699544 69.38195,-18.574167 69.670452,-18.444339 69.958329,-18.310074 70.245646,-18.171386 70.532466,-18.028298 70.818847,-17.880833 71.104847,-17.729021 71.390515,-17.572895 71.675901,-17.412495 71.961049,-17.247861 72.245999,-17.079041 72.530786,-16.906085 72.81544,-16.72905 73.09999,-16.547993 73.384456,-16.362979 73.668857,-16.174075 73.953205,-15.981352 74.237508,-15.784886 74.521771,-15.584755 74.805991,-15.381043 75.090165,-15.173834 75.374282,-14.963218 75.658329,-14.749288 75.942288,-14.532139 76.226136,-14.311869 76.509849,-14.08858 76.793395,-13.862375 77.076742,-13.63336 77.359854,-13.401644 77.642691,-13.167337 77.925209,-12.93055 78.207363,-12.691398 78.489104,-12.449995 78.770382,-12.206457 79.051144,-11.960903 79.331333,-11.71345 79.610893,-11.464216 79.889766,-11.213321 80.16789,-10.960884 80.445206,-10.707025 80.72165,-10.45186 80.997159,-10.19551 83.834617,-14.463641 83.530318,-14.746807 83.225026,-15.028685 82.918824,-15.309137 82.611792,-15.588024 82.304009,-15.865207 81.995554,-16.140548 81.686505,-16.413908 81.376935,-16.68515 81.066917,-16.954136 80.756522,-17.220731 80.445817,-17.484801 80.134866,-17.746213 79.823731,-18.004836 79.512469,-18.260542 79.201134,-18.513205 78.889776,-18.7627 78.57844,-19.008906 78.267168,-19.251706 77.955995,-19.490984 77.644953,-19.72663 77.334069,-19.958534 77.023363,-20.186592 76.712852,-20.410705 76.402544,-20.630776 76.092443,-20.846713 75.782549,-21.058428 75.472853,-21.265837 75.163342,-21.468863 74.853994,-21.66743 74.544786,-21.861471 74.235683,-22.05092 73.926649,-22.235719 73.617638,-22.415813 73.3086,-22.591153 "
     id="polygon134-7"
     transform="rotate(-16.816143,415.5439,558.46305)"
     style="fill:#a8a8a8;fill-opacity:1;stroke:#000001;stroke-width:0.1;stroke-miterlimit:4;stroke-dasharray:none;stroke-opacity:1" />
  <path
     style="fill:#fefefe;fill-opacity:1;stroke:#000001;stroke-width:0.1;stroke-linecap:butt;stroke-linejoin:miter;stroke-miterlimit:4;stroke-dasharray:none;stroke-opacity:1"
     d="m -101.76473,105.36693 -1.30921,0.6379 1.48275,4.90609 c 1.29001,-0.63038 2.430049,-1.15542 2.430049,-1.15542 -0.903479,-1.25804 -1.659579,-2.43589 -2.603589,-4.38857 z"
     id="path8270-85"
     sodipodi:nodetypes="ccccc" />
  <path
     style="fill:#fefefe;fill-opacity:1;stroke:#000001;stroke-width:0.1;stroke-linecap:butt;stroke-linejoin:miter;stroke-miterlimit:4;stroke-dasharray:none;stroke-opacity:1"
     d="m -69.038259,105.36231 1.309327,0.63765 -1.48181,4.90637 c -1.290135,-0.63013 -2.430273,-1.15496 -2.430273,-1.15496 0.903244,-1.2582 1.659121,-2.4362 2.602756,-4.38906 z"
     id="path8270-8-7"
     sodipodi:nodetypes="ccccc" />
</g>
<g
   id="g19977"
   transform="translate(125.77491,-31.810177)"
   style="stroke-width:0.1;stroke-miterlimit:4;stroke-dasharray:none">
  <polygon
     stroke-width="0.1"
     fill="none"
     stroke="#000000"
     points="70.083528,-4.7056412 69.889066,-4.936247 69.692507,-5.1632629 69.493827,-5.3866037 69.293,-5.6061866 69.09,-5.8219314 68.884803,-6.0337604 68.677383,-6.2415986 68.467718,-6.4453739 68.255783,-6.6450172 68.041558,-6.8404622 67.825022,-7.0316462 67.606154,-7.2185093 67.384937,-7.4009954 67.161354,-7.5790517 66.935392,-7.7526291 66.707036,-7.9216821 66.476276,-8.086169 66.243102,-8.2460522 66.007509,-8.401298 65.76949,-8.5518765 65.529043,-8.6977624 65.286168,-8.8389342 65.040866,-8.9753748 64.793141,-9.1070714 64.542999,-9.2340155 64.290448,-9.3562029 64.035499,-9.4736338 63.778164,-9.5863126 63.518458,-9.6942481 63.256398,-9.7974535 62.992003,-9.8959461 62.725294,-9.9897472 62.456293,-10.078883 62.185027,-10.163382 61.911523,-10.243278 61.635808,-10.318609 61.357915,-10.389415 61.077876,-10.455741 60.795726,-10.517635 60.511501,-10.575147 60.225241,-10.628332 59.936985,-10.677246 59.646776,-10.721948 59.354658,-10.762501 59.060677,-10.798968 58.76488,-10.831416 58.467318,-10.859912 58.168043,-10.884526 57.867108,-10.905328 57.564568,-10.922391 57.260482,-10.935788 56.954909,-10.945593 56.64791,-10.951879 56.339549,-10.954722 56.029891,-10.954197 55.719003,-10.950378 55.406956,-10.94334 55.09382,-10.933158 54.779669,-10.919907 54.464576,-10.903659 54.14862,-10.884488 53.831878,-10.862466 53.51443,-10.837664 53.196357,-10.810152 52.877743,-10.779999 52.558671,-10.747273 52.239226,-10.712042 51.919494,-10.674368 51.599564,-10.634318 51.279521,-10.591952 50.959455,-10.547332 50.639453,-10.500515 50.319606,-10.45156 50,-10.400522 50,-6.2350207 50.264473,-6.2771864 50.5292,-6.3174956 50.794143,-6.3559015 51.059258,-6.3923548 51.324505,-6.4268041 51.589843,-6.4591959 51.855229,-6.4894749 52.120622,-6.5175836 52.385979,-6.5434631 52.651257,-6.5670528 52.916412,-6.5882906 53.181403,-6.6071134 53.446184,-6.6234568 53.710712,-6.6372553 53.974942,-6.6484431 54.238829,-6.6569534 54.502329,-6.6627194 54.765395,-6.6656739 55.02798,-6.6657498 55.290039,-6.6628803 55.551525,-6.656999 55.812389,-6.6480403 56.072584,-6.6359393 56.332061,-6.6206323 56.590771,-6.6020569 56.848665,-6.5801521 57.105693,-6.5548587 57.361805,-6.5261193 57.616949,-6.4938788 57.871076,-6.4580841 58.124134,-6.4186848 58.376071,-6.3756328 58.626836,-6.3288831 58.876378,-6.2783934 59.124645,-6.2241245 59.371584,-6.1660404 59.617146,-6.1041084 59.861279,-6.0382991 60.103932,-5.9685867 60.345056,-5.8949489 60.5846,-5.817367 60.822516,-5.735826 61.058755,-5.6503147 61.293272,-5.5608256 61.52602,-5.467355 61.756954,-5.369903 61.986031,-5.2684733 62.213209,-5.1630736 62.438447,-5.0537152 62.661707,-4.9404133 62.882953,-4.8231866 63.102148,-4.7020573 63.31926,-4.5770513 63.534258,-4.4481981 63.747114,-4.3155304 63.9578,-4.1790841 64.166294,-4.0388987 64.372572,-3.8950163 64.576616,-3.7474825 64.77841,-3.5963453 64.977938,-3.4416559 65.17519,-3.2834678 65.370156,-3.1218372 65.56283,-2.9568226 65.753207,-2.7884847 65.941288,-2.6168864 66.127072,-2.4420923 66.310564,-2.2641692 66.491769,-2.0831853 66.670696,-1.8992104 66.847355,-1.7123155 67.02176,-1.5225731 67.193924,-1.3300566 67.363864,-1.1348405 67.5316,-0.93699992 67.697149,-0.73661073 67.860536,-0.53374933 68.021781,-0.32849252 68.180909,-0.12091734 68.337945,0.088899019 68.492914,0.30087935 68.645844,0.51494657 68.796761,0.73102379 68.945691,0.94903446 69.092663,1.1689025 69.237704,1.3905523 69.38084,1.613909 69.522098,1.8388984 69.661505,2.0654472 69.799086,2.293483 69.934865,2.5229343 70.068866,2.7537309 70.201112,2.9858036 70.331624,3.2190846 70.460422,3.4535073 70.587525,3.6890066 70.712949,3.9255189 70.83671,4.1629819 70.958823,4.4013353 74.320841,1.9420179 74.173339,1.6539279 74.024013,1.3668724 73.87287,1.0809556 73.719916,0.79628287 73.565156,0.51296041 73.408594,0.23109516 73.250231,-0.049205418 73.090067,-0.32783349 72.928099,-0.60468107 72.764326,-0.87964014 72.598741,-1.1526028 72.431337,-1.4234616 72.262107,-1.6921093 72.091039,-1.9584394 71.918122,-2.2223462 71.743342,-2.4837247 71.566684,-2.742471 71.388131,-2.9984824 71.207665,-3.2516573 71.025267,-3.5018955 70.840916,-3.7490984 70.65459,-3.9931688 70.466265,-4.2340115 70.27592,-4.4715328 "
     id="polygon130-7"
     transform="rotate(-26.928785,242.6548,364.9695)"
     style="fill:#a8a8a8;fill-opacity:1;stroke:#000001;stroke-width:0.1;stroke-miterlimit:4;stroke-dasharray:none;stroke-opacity:1" />
  <path
     style="fill:#ffffff;fill-opacity:1;stroke:#000001;stroke-width:0.1;stroke-linecap:butt;stroke-linejoin:miter;stroke-miterlimit:4;stroke-dasharray:none;stroke-opacity:1"
     d="m -94.897439,114.8148 c -1.025139,0.58566 -2.696526,1.60331 -4.211592,2.73601 l 1.886483,3.71384 c 3.027316,-2.21777 5.668143,-3.424 7.416945,-3.92922 -1.531218,-0.55193 -3.348404,-1.39425 -5.091836,-2.52063 z"
     id="path10112-5"
     sodipodi:nodetypes="ccccc" />
  <path
     style="fill:#ffffff;fill-opacity:1;stroke:#000001;stroke-width:0.1;stroke-linecap:butt;stroke-linejoin:miter;stroke-miterlimit:4;stroke-dasharray:none;stroke-opacity:1"
     d="m -76.050406,114.80815 c 1.025684,0.5847 2.698021,1.6008 4.214143,2.73208 l -1.883014,3.7156 c -3.029385,-2.21495 -5.671334,-3.41871 -7.420611,-3.9223 1.530704,-0.55335 3.347104,-1.39737 5.089482,-2.52538 z"
     id="path10112-8-9"
     sodipodi:nodetypes="ccccc" />
</g>
<g
   id="g19972"
   transform="translate(125.77491,-31.497677)"
   style="stroke-width:0.1;stroke-miterlimit:4;stroke-dasharray:none">
  <polygon
     stroke-width="0.1"
     fill="none"
     stroke="#000000"
     points="68.335085,6.296569 68.250633,6.0438903 68.163691,5.7924094 68.074222,5.5422 67.982193,5.2933363 67.887566,5.0458931 67.790302,4.7999456 67.690362,4.5555698 67.587705,4.312842 67.48229,4.0718396 67.374073,3.8326405 67.263014,3.5953233 67.149069,3.3599678 67.032196,3.1266543 66.912354,2.895464 66.789503,2.6664792 66.663603,2.4397827 66.534617,2.2154584 66.402509,1.9935906 66.267247,1.7742644 66.1288,1.5575654 65.98714,1.3435794 65.842244,1.1323927 65.694091,0.92409131 65.542663,0.71876136 65.387947,0.51648851 65.229935,0.31735787 65.068622,0.12145377 64.904006,-0.071140477 64.736092,-0.26034282 64.564888,-0.44607272 64.390407,-0.62825138 64.212665,-0.80680202 64.031686,-0.98165008 63.847493,-1.1527235 63.660119,-1.319953 63.469597,-1.4832722 63.275966,-1.6426178 63.079268,-1.7979303 62.879551,-1.9491533 62.676864,-2.0962347 62.471261,-2.239126 62.262798,-2.3777831 62.051536,-2.5121663 61.837537,-2.6422402 61.620866,-2.7679741 61.401591,-2.8893422 61.179781,-3.0063232 60.955509,-3.1189009 60.728847,-3.2270642 60.49987,-3.3308068 60.268654,-3.4301275 60.035275,-3.5250302 59.79981,-3.6155238 59.562337,-3.701622 59.322933,-3.7833436 59.081676,-3.8607122 58.838642,-3.9337558 58.59391,-4.0025074 58.347554,-4.0670039 58.099649,-4.1272866 57.850269,-4.1834009 57.599488,-4.2353957 57.347376,-4.2833235 57.094004,-4.3272398 56.83944,-4.3672032 56.583752,-4.4032748 56.327004,-4.4355179 56.069262,-4.4639979 55.810588,-4.4887817 55.551043,-4.5099373 55.290688,-4.5275338 55.029581,-4.5416408 54.767781,-4.5523283 54.505344,-4.5596662 54.242326,-4.563724 53.978784,-4.5645706 53.714772,-4.5622745 53.450345,-4.5569026 53.185558,-4.5485209 52.920465,-4.537194 52.655121,-4.5229851 52.389581,-4.5059555 52.123899,-4.4861651 51.858131,-4.4636718 51.592331,-4.4385319 51.326556,-4.4107996 51.060861,-4.3805275 50.795303,-4.347766 50.529936,-4.3125636 50.264816,-4.274967 50,-4.2350207 50,0 50.190798,-0.028633738 50.381922,-0.055288111 50.573394,-0.079927745 50.765236,-0.10251371 50.957467,-0.12300369 51.150106,-0.14135216 51.343168,-0.15751064 51.536667,-0.17142791 51.730613,-0.18305034 51.925015,-0.19232214 52.119876,-0.19918574 52.315197,-0.20358207 52.510975,-0.20545097 52.707203,-0.20473153 52.903869,-0.20136242 53.100959,-0.19528232 53.298453,-0.18643026 53.496326,-0.17474597 53.694549,-0.16017026 53.893089,-0.14264533 54.091909,-0.12211512 54.290966,-0.098525637 54.490214,-0.0718252 54.689602,-0.041964763 54.889075,-0.0088981482 55.088576,0.027417717 55.28804,0.067022588 55.487401,0.10995271 55.686591,0.15624066 55.885536,0.20591517 56.084161,0.25900106 56.282386,0.31551904 56.480131,0.37548574 56.677312,0.43891352 56.873844,0.50581053 57.069639,0.5761806 57.26461,0.65002327 57.458665,0.72733376 57.651715,0.808103 57.843668,0.89231767 58.03443,0.9799602 58.223912,1.0710089 58.412019,1.1654379 58.59866,1.2632173 58.783744,1.3643134 58.96718,1.4686884 59.148879,1.5763011 59.328753,1.6871063 59.506714,1.8010556 59.682679,1.918097 59.856564,2.0381754 60.028288,2.1612326 60.197774,2.2872075 60.364945,2.416036 60.529729,2.5476518 60.692056,2.6819858 60.85186,2.818967 61.009078,2.958522 61.16365,3.1005759 61.31552,3.2450518 61.464637,3.3918718 61.610952,3.5409565 61.754423,3.6922255 61.895011,3.8455977 62.03268,4.0009916 62.1674,4.1583253 62.299146,4.3175169 62.427898,4.4784846 62.553638,4.6411473 62.676356,4.8054244 62.796046,4.9712364 62.912705,5.1385049 63.026337,5.3071532 63.136949,5.4771062 63.244555,5.6482907 63.349171,5.8206359 63.450818,5.9940734 63.549522,6.1685374 63.645313,6.3439652 63.738224,6.5202969 63.828293,6.6974761 63.91556,6.8754499 64.000068,7.0541689 64.081863,7.2335872 64.160995,7.4136632 64.237513,7.5943588 64.31147,7.7756399 64.38292,7.9574766 64.451916,8.1398427 64.518514,8.3227161 64.582768,8.5060784 64.644732,8.6899151 64.704461,8.8742152 64.762006,9.0589715 64.817419,9.2441798 64.870748,9.4298391 64.92204,9.6159515 64.97134,9.8025215 65.018688,9.9895563 68.924488,8.3524447 68.85896,8.0927727 68.791148,7.8337296 68.721033,7.5753836 68.648592,7.3178043 68.573802,7.0610618 68.49664,6.8052273 68.417077,6.5503723 "
     id="polygon128-3"
     transform="rotate(-33.638557,185.54039,301.79712)"
     style="stroke:#000001;stroke-width:0.1;stroke-miterlimit:4;stroke-dasharray:none;stroke-opacity:1" />
  <path
     style="fill:#a8a8a8;fill-opacity:1;stroke:#000001;stroke-width:0.1;stroke-linecap:butt;stroke-linejoin:miter;stroke-miterlimit:4;stroke-dasharray:none;stroke-opacity:1"
     d="m -89.747049,117.59451 c 4.30516,1.39838 8.559576,-0.001 8.559576,-0.001 0,0 -3.969187,-1.70056 -8.559576,0.001 z"
     id="path12196-1"
     sodipodi:nodetypes="ccc" />
</g>
<g
   id="g20011"
   transform="translate(125.77491,-35.185176)"
   style="stroke-width:0.1;stroke-miterlimit:4;stroke-dasharray:none">
  <polygon
     stroke-width="0.1"
     fill="none"
     stroke="#000000"
     points="81.73449,-57.100346 82.175465,-57.063629 82.619143,-57.025324 83.065491,-56.985456 83.514463,-56.944051 83.966006,-56.901137 84.420057,-56.856745 84.876543,-56.810908 85.335383,-56.763659 85.796487,-56.715038 86.25976,-56.665082 86.725097,-56.613834 87.192387,-56.561338 87.661511,-56.507641 88.132348,-56.45279 88.604768,-56.396838 89.078637,-56.339836 89.553818,-56.281842 90.030168,-56.222913 90.507542,-56.163108 90.985791,-56.10249 91.464763,-56.041123 91.944306,-55.979074 92.424266,-55.916411 92.904485,-55.853205 93.384808,-55.789527 93.04852,-65.927486 92.583918,-65.989067 92.119375,-66.050167 91.655005,-66.110717 91.190919,-66.170648 90.727231,-66.229892 90.264051,-66.288385 89.801488,-66.346067 89.33965,-66.402876 88.878642,-66.458755 88.418568,-66.51365 87.959525,-66.567508 87.501611,-66.620278 87.044917,-66.671913 86.589532,-66.722367 86.135539,-66.771596 85.683016,-66.81956 85.232037,-66.86622 84.782669,-66.911539 84.334975,-66.955484 83.88901,-66.998023 83.444823,-67.039125 83.002456,-67.078763 82.561944,-67.116912 82.123316,-67.153546 81.686593,-67.188645 81.251785,-67.222189 80.8189,-67.254158 80.387934,-67.284536 79.958877,-67.313308 79.531708,-67.34046 79.106402,-67.36598 78.682923,-67.389856 78.261229,-67.412079 77.841268,-67.43264 77.422981,-67.45153 77.006303,-67.468743 76.59116,-67.484272 76.177471,-67.498113 75.765149,-67.510259 75.3541,-67.520707 74.944226,-67.529453 74.53542,-67.536493 74.127574,-67.541823 73.720571,-67.545442 73.314294,-67.547346 72.90862,-67.547532 72.503426,-67.545999 72.098583,-67.542743 71.693963,-67.537762 71.289437,-67.531055 70.884874,-67.522618 70.480146,-67.51245 70.075123,-67.500549 69.669679,-67.486914 69.263688,-67.471541 68.857029,-67.454431 68.449583,-67.435582 68.041236,-67.414992 67.631877,-67.392663 67.2214,-67.368593 66.809708,-67.342783 66.396705,-67.315235 65.982305,-67.285951 65.566426,-67.254933 65.148996,-67.222186 64.729947,-67.187713 64.309221,-67.151522 63.886766,-67.113619 63.46254,-67.074013 63.036506,-67.032714 62.608638,-66.989733 62.178916,-66.945083 61.747329,-66.89878 61.313872,-66.85084 60.878552,-66.801281 60.441379,-66.750124 60.002375,-66.697393 59.561565,-66.64311 59.118984,-66.587304 58.674674,-66.530004 58.228683,-66.47124 57.781065,-66.411048 57.331881,-66.349462 56.881197,-66.286522 56.429085,-66.222268 55.975623,-66.156745 55.520892,-66.089998 55.064979,-66.022075 54.607974,-65.953028 54.149972,-65.88291 53.69107,-65.811778 53.23137,-65.739688 52.770973,-65.666703 52.309987,-65.592886 51.848518,-65.518302 51.386674,-65.443018 50.924566,-65.367106 50.462305,-65.290638 50,-65.213688 50,-55.070154 50.477948,-55.14972 50.955808,-55.228813 51.433426,-55.307353 51.910648,-55.385267 52.387323,-55.462479 52.863299,-55.538919 53.338428,-55.614517 53.812562,-55.689207 54.285559,-55.762923 54.757279,-55.835603 55.227584,-55.907188 55.696344,-55.977618 56.16343,-56.046839 56.628723,-56.114798 57.092105,-56.181445 57.553467,-56.246733 58.012707,-56.310615 58.469728,-56.373049 58.924444,-56.433995 59.376773,-56.493416 59.826646,-56.551277 60.273998,-56.607544 60.718779,-56.662188 61.160943,-56.715181 61.600459,-56.766498 62.037303,-56.816117 62.471463,-56.864016 62.902938,-56.910177 63.331738,-56.954585 63.757885,-56.997224 64.181412,-57.038084 64.602363,-57.077153 65.020794,-57.114424 65.436775,-57.14989 65.850385,-57.183545 66.261714,-57.215386 66.670865,-57.24541 67.077951,-57.273616 67.483097,-57.300004 67.886435,-57.324574 68.28811,-57.347329 68.688273,-57.368268 69.087087,-57.387397 69.484717,-57.404716 69.88134,-57.420231 70.277136,-57.433943 70.672291,-57.445857 71.066992,-57.455975 71.461433,-57.464303 71.855806,-57.470842 72.250306,-57.475596 72.645126,-57.478569 73.040458,-57.479762 73.436491,-57.47918 73.833411,-57.476823 74.231397,-57.472696 74.630625,-57.4668 75.031263,-57.459139 75.433471,-57.449714 75.837402,-57.438529 76.243199,-57.425588 76.650997,-57.410894 77.060918,-57.394451 77.473077,-57.376264 77.887574,-57.35634 78.304502,-57.334685 78.723939,-57.311307 79.145954,-57.286215 79.570602,-57.259419 79.997928,-57.230931 80.427964,-57.200764 80.860732,-57.168933 81.296242,-57.135455 "
     id="polygon142-9"
     transform="rotate(0.94709841,-8152.5763,-9482.3891)"
     style="fill:#a8a8a8;fill-opacity:1;stroke:#000001;stroke-width:0.1;stroke-miterlimit:4;stroke-dasharray:none;stroke-opacity:1" />
  <path
     style="fill:#fefefe;fill-opacity:1;stroke:#000001;stroke-width:0.1;stroke-linecap:butt;stroke-linejoin:miter;stroke-miterlimit:4;stroke-dasharray:none;stroke-opacity:1"
     d="m -105.78027,68.938912 -0.99901,0.143126 -0.16767,10.142152 1.00142,-0.151182 z"
     id="path13368-6" />
  <path
     style="fill:#fefefe;fill-opacity:1;stroke:#000001;stroke-width:0.1;stroke-linecap:butt;stroke-linejoin:miter;stroke-miterlimit:4;stroke-dasharray:none;stroke-opacity:1"
     d="m -64.726904,68.937231 0.999069,0.142733 0.171645,10.142086 -1.001478,-0.15079 z"
     id="path13368-0-4" />
</g>
<polygon
   stroke-width="0.1"
   fill="none"
   stroke="#000000"
   points="87.989414,-87.721297 88.396259,-87.811662 88.803195,-87.901976 89.210193,-87.992282 89.617222,-88.082628 90.02425,-88.173067 88.118879,-92.871871 87.748084,-92.789488 87.377222,-92.707178 87.006258,-92.624868 86.635156,-92.542492 86.26388,-92.459994 85.892393,-92.37732 85.520656,-92.294425 85.148631,-92.21127 84.77628,-92.127824 84.403565,-92.044061 84.030446,-91.959959 83.656888,-91.875507 83.282853,-91.790697 82.908304,-91.705524 82.533208,-91.619994 82.157529,-91.534114 81.781236,-91.447896 81.404298,-91.361357 81.026686,-91.274519 80.648372,-91.187407 80.269333,-91.10005 79.889546,-91.012478 79.50899,-90.924726 79.127649,-90.836832 78.745507,-90.748833 78.362554,-90.66077 77.97878,-90.572686 77.59418,-90.484623 77.208751,-90.396626 76.822496,-90.308739 76.435418,-90.221007 76.047524,-90.133475 75.658827,-90.046187 75.26934,-89.959187 74.879082,-89.872518 74.488073,-89.786223 74.096339,-89.700343 73.703905,-89.614917 73.310804,-89.529983 72.917068,-89.445579 72.522734,-89.361738 72.12784,-89.278493 71.732428,-89.195876 71.336542,-89.113914 70.940226,-89.032633 70.543528,-88.952057 70.146498,-88.872207 69.749185,-88.793102 69.351641,-88.714758 68.953918,-88.637187 68.556071,-88.560399 68.158151,-88.484404 67.760214,-88.409204 67.362312,-88.334803 66.964499,-88.261198 66.566828,-88.188386 66.16935,-88.11636 65.772117,-88.045109 65.375179,-87.974622 64.978583,-87.904881 64.582376,-87.835869 64.186604,-87.767565 63.791308,-87.699944 63.396529,-87.632981 63.002305,-87.566645 62.608671,-87.500907 62.215661,-87.435732 61.823304,-87.371086 61.431628,-87.306931 61.040655,-87.243228 60.650408,-87.179939 60.260904,-87.117022 59.872157,-87.054435 59.484178,-86.992136 59.096976,-86.930084 58.710555,-86.868235 58.324915,-86.806549 57.940056,-86.744986 57.55597,-86.683505 57.172649,-86.622069 56.790081,-86.560642 56.408249,-86.499191 56.027136,-86.437686 55.64672,-86.376099 55.266974,-86.314406 54.887871,-86.252587 54.509379,-86.190626 54.131464,-86.128512 53.754088,-86.066238 53.377213,-86.003803 53.000795,-85.941211 52.624789,-85.87847 52.249146,-85.815597 51.873819,-85.752614 51.498753,-85.689547 51.123895,-85.626432 50.749189,-85.563308 50.374577,-85.500222 50,-85.437229 50,-80.366805 50.411182,-80.435948 50.822329,-80.505178 51.233433,-80.574433 51.644482,-80.643657 52.055467,-80.7128 52.466375,-80.78182 52.877193,-80.850676 53.28791,-80.919336 53.698512,-80.987773 54.108986,-81.055964 54.519317,-81.123894 54.929492,-81.191551 55.339496,-81.258928 55.749316,-81.326025 56.158938,-81.392845 56.568347,-81.459397 56.977531,-81.525693 57.386477,-81.591749 57.795172,-81.657587 58.203604,-81.723232 58.611761,-81.78871 59.019634,-81.854054 59.427213,-81.919297 59.834488,-81.984477 60.241451,-82.049632 60.648096,-82.114804 61.054416,-82.180035 61.460406,-82.24537 61.866061,-82.310854 62.271379,-82.376534 62.676358,-82.442456 63.080997,-82.508667 63.485295,-82.575215 63.889255,-82.642144 64.292879,-82.7095 64.69617,-82.777329 65.099133,-82.845673 65.501773,-82.914574 65.904098,-82.984071 66.306116,-83.054202 66.707834,-83.125002 67.109264,-83.196504 67.510415,-83.268738 67.911301,-83.341731 68.311933,-83.415507 68.712327,-83.490087 69.112495,-83.565488 69.512454,-83.641724 69.912221,-83.718807 70.311812,-83.796742 70.711245,-83.875534 71.110539,-83.955183 71.509713,-84.035684 71.908787,-84.117031 72.30778,-84.199212 72.706713,-84.282215 73.105608,-84.36602 73.504485,-84.450609 73.903366,-84.535956 74.302273,-84.622036 74.701226,-84.708819 75.100248,-84.796273 75.499359,-84.884364 75.898581,-84.973056 76.297934,-85.062311 76.697438,-85.152088 77.097112,-85.242346 77.496975,-85.333044 77.897044,-85.424137 78.297337,-85.515582 78.697869,-85.607335 79.098655,-85.699352 79.499707,-85.79159 79.901039,-85.884004 80.302659,-85.976554 80.704577,-86.069198 81.106801,-86.161897 81.509335,-86.254614 81.912184,-86.347313 82.315349,-86.439961 82.71883,-86.532528 83.122626,-86.624988 83.526733,-86.717315 83.931145,-86.80949 84.335855,-86.901495 84.740852,-86.993319 85.146126,-87.084952 85.551662,-87.17639 85.957446,-87.267634 86.36346,-87.358689 86.769686,-87.449565 87.176102,-87.540277 87.582686,-87.630846 "
   id="polygon146-8"
   transform="rotate(11.020463,-473.14014,-186.72383)"
   style="fill:#a8a8a8;fill-opacity:1;stroke:#000001;stroke-width:0.1;stroke-miterlimit:4;stroke-dasharray:none;stroke-opacity:1" />
<path
   id="path15322-89"
   style="fill:#fefefe;fill-opacity:1;stroke:#000001;stroke-width:0.1;stroke-linecap:butt;stroke-linejoin:miter;stroke-miterlimit:4;stroke-dasharray:none;stroke-opacity:1"
   d="m 59.827987,12.687434 c -8.473016,0.184064 -11.424015,0.455515 -19.049725,0.49167 -8.181947,-0.01607 -11.046529,-0.296991 -19.787386,-0.48094 l -2.178838,-0.05659 1.209578,5.033499 7.633699,0.209545 c 0.214653,-0.313754 0.667799,-1.152066 0.909391,-1.502705 0.872639,-1.266524 3.081735,-2.34909 8.917507,-2.374848 l 2.742402,-0.0082 3.117407,-0.03924 c 5.835789,0.0218 8.041124,1.150776 8.914622,2.416707 0.241828,0.350476 0.695565,1.188479 0.910432,1.502086 l 7.633558,-0.214736 1.20704,-5.030377 z"
   sodipodi:nodetypes="ccccccscccscccc" />
<path
   id="polygon454-5"
   style="fill:none;stroke:#000000;stroke-width:0.1"
   d="m 74.680826,31.629298 -0.242815,-0.08927 -0.224307,-0.08244 -0.205603,-0.07553 -0.186523,-0.06889 -0.167398,-0.06183 -0.148126,-0.05472 -0.128693,-0.04753 -0.109145,-0.04032 -0.08937,-0.033 -0.06968,-0.02574 -0.04977,-0.01839 -0.02992,-0.01105 -0.01014,-0.0037 c 0,0 6.400984,-15.992091 15.778878,-24.0333667 l 0.0044,0.0011 0.01237,0.0041 0.02057,0.0076 0.02876,0.01064 0.03697,0.01366 0.04509,0.01665 0.05315,0.01963 0.06121,0.02261 0.06921,0.02556 0.07711,0.02849 0.08485,0.03134 0.09262,0.03421 0.100271,0.03704 0.107788,0.03982 0.115271,0.04257 0.122595,0.04529 0.129775,0.04793 0.136815,0.05054 0.143756,0.0531 0.150634,0.05522 0.157276,0.05767 0.16374,0.06006 0.170051,0.06239 0.176205,0.06467 0.182149,0.06686 0.187941,0.069 0.19352,0.07106 0.19891,0.07305 0.204126,0.07498 0.209102,0.07682 0.21389,0.07858 0.218464,0.08028 0.222823,0.08188 0.226949,0.08341 0.23087,0.08486 0.234539,0.08622 0.237981,0.08748 0.2412,0.08868 0.244162,0.08977 0.246882,0.09077 0.249378,0.09169 0.251606,0.09251 0.253583,0.09325 0.255323,0.09389 0.256795,0.09444 1.185165,0.43454 0.136886,0.04939 0.13737,0.04805 0.137953,0.04627 0.138646,0.04415 0.139401,0.04162 0.140221,0.03886 0.141055,0.03579 0.141834,0.03242 0.142567,0.02897 0.143252,0.02541 0.143847,0.02189 0.144331,0.01839 0.144728,0.01502 0.145023,0.01185 0.145237,0.0089 0.145362,0.0063 0.145437,0.0041 0.1455,0.0022 0.145512,8.66e-4 1.262309,3.94e-4 0.27359,-3.94e-4 0.27205,-3.94e-4 0.27018,-3.93e-4 0.26806,-3.94e-4 0.2657,-3.94e-4 0.26305,-3.93e-4 0.26014,-3.94e-4 0.25699,-3.94e-4 0.25355,-3.94e-4 0.24988,-3.93e-4 0.24596,-3.94e-4 0.24179,-3.94e-4 0.2374,-3.93e-4 0.23274,-3.94e-4 0.22787,-3.94e-4 0.22279,-3.93e-4 0.21743,-3.94e-4 0.21191,-3.94e-4 0.20617,-3.94e-4 0.20019,-3.93e-4 0.19404,-5.91e-4 h 0.18768 l 0.18115,-5.51e-4 h 0.17444 l 0.16751,-5.12e-4 0.16046,-5.12e-4 0.15325,-4.72e-4 0.14584,-4.73e-4 0.13833,-4.33e-4 0.13066,-3.93e-4 0.12286,-3.94e-4 0.11496,-3.94e-4 0.10689,-3.93e-4 0.0987,-3.94e-4 0.0905,-3.94e-4 0.0822,-3.94e-4 0.0738,-3.93e-4 0.0653,-3.94e-4 0.0567,3.94e-4 0.048,3.93e-4 0.0394,3.94e-4 0.0307,3.94e-4 h 0.022 0.0132 l 0.004,-3.2e-5 c 5.93678,10.561308 6.53215,27.999084 6.53215,27.999084 l -0.0106,5.12e-4 h -0.0319 l -0.0531,-3.94e-4 -0.0742,3.94e-4 -0.0953,3.93e-4 -0.11629,3.94e-4 -0.13718,4.33e-4 -0.15789,4.73e-4 -0.17846,5.51e-4 -0.19885,6.3e-4 -0.21903,3.94e-4 -0.23897,7.48e-4 -0.2587,8.26e-4 -0.27815,4.73e-4 -0.29733,5.51e-4 -0.31619,5.9e-4 -0.33474,6.7e-4 -0.35295,7.08e-4 -0.37082,7.48e-4 -0.3883,8.27e-4 -0.40541,7.88e-4 -0.42208,8.26e-4 -0.43835,9.06e-4 -0.45418,8.66e-4 -0.46954,8.66e-4 -0.48445,8.66e-4 -0.49886,9.06e-4 -0.51279,9.45e-4 -0.52619,9.05e-4 -0.53908,8.66e-4 -0.55141,9.06e-4 -0.56322,8.66e-4 -0.57445,8.66e-4 -0.58511,8.66e-4 -0.5952,8.27e-4 -0.60469,8.27e-4 -0.61356,8.27e-4 -0.62185,7.48e-4 -0.6295,7.87e-4 -0.63654,7.48e-4 -0.642935,7.09e-4 -0.648705,6.69e-4 -0.653819,6.3e-4 -0.658291,5.51e-4 -0.662102,5.12e-4 h -0.36165 l -0.332291,-0.002 -0.332268,-0.0051 -0.332173,-0.0094 -0.331985,-0.01445 -0.331669,-0.02037 -0.331193,-0.02705 -0.330527,-0.03431 -0.32963,-0.04203 -0.328512,-0.05002 -0.327173,-0.05815 -0.325622,-0.06623 -0.323941,-0.07413 -0.322091,-0.08167 -0.320248,-0.08871 -0.31839,-0.09514 -0.31663,-0.100795 -0.315055,-0.105693 -0.313685,-0.10965 -0.312606,-0.112693 -0.33948,-0.124689 -0.62139,-0.228602 -0.61778,-0.22735 -0.613571,-0.225839 -0.608752,-0.224146 -0.60333,-0.222181 -0.597311,-0.22 -0.590693,-0.217642 -0.583485,-0.215023 -0.575744,-0.212118 -0.567374,-0.209107 -0.558456,-0.205862 -0.549004,-0.20237 -0.539,-0.198669 -0.528453,-0.194784 -0.517402,-0.190693 -0.505831,-0.186417 -0.49372,-0.181953 -0.481028,-0.177673 -0.467956,-0.172854 -0.454441,-0.167859 -0.440461,-0.1627 -0.426043,-0.157363 -0.411193,-0.151885 -0.395937,-0.146248 -0.380292,-0.140473 -0.364251,-0.134543 -0.347843,-0.128484 -0.331098,-0.122296 -0.314008,-0.115992 -0.296615,-0.109559 -0.279039,-0.102646 z"
   sodipodi:nodetypes="ccccccccccccccccccccccccccccccccccccccccccccccccccccccccccccccccccccccccccccccccccccccccccccccccccccccccccccccccccccccccccccccccccccccccccccccccccccccccccccccccccccccccccccccccccccccccccccccccccccccccccccccccccccccccccccccccc" />
<g
   id="g1364"
   transform="rotate(106.59691,49.693137,-68.138819)">
  <path
     id="polygon456-1"
     style="fill:none;stroke:#000000;stroke-width:0.1"
     d="m 139.98311,-119.02286 v -0.0106 l 1e-5,-0.0319 10e-6,-0.0531 3e-5,-0.0742 2e-5,-0.0953 4e-5,-0.11631 4e-5,-0.13717 6e-5,-0.15789 6e-5,-0.17847 8e-5,-0.19884 9e-5,-0.21902 1e-4,-0.23899 1.2e-4,-0.2587 1.4e-4,-0.27815 1.5e-4,-0.29732 1.7e-4,-0.3162 1.9e-4,-0.33474 2.1e-4,-0.35296 2.3e-4,-0.37082 2.5e-4,-0.38831 2.7e-4,-0.4054 2.9e-4,-0.42208 3.2e-4,-0.43836 3.4e-4,-0.45417 3.5e-4,-0.46955 3.9e-4,-0.48445 4e-4,-0.49887 4.2e-4,-0.51278 4.4e-4,-0.52619 4.6e-4,-0.53908 4.8e-4,-0.55142 5e-4,-0.56321 5.1e-4,-0.57445 5.3e-4,-0.58512 5.4e-4,-0.59519 5.6e-4,-0.60468 5.7e-4,-0.61357 5.7e-4,-0.62185 5.9e-4,-0.6295 5.9e-4,-0.63654 6e-4,-0.64294 6.1e-4,-0.6487 6e-4,-0.65382 6.1e-4,-0.65829 6.1e-4,-0.66211 3.3e-4,-0.36222 20.0024,-2.53444 v 15.47884 c -6.29745,6.17772 -14.33416,5.54126 -20.01688,5.51913 z"
     sodipodi:nodetypes="cccccccccccccccccccccccccccccccccccccccccccccccccc" />
  <path
     id="polygon458-1"
     style="fill:none;stroke:#000000;stroke-width:0.1"
     d="m 158.98272,-146.95451 -19.89234,3.28688 0.0946,0.31855 0.0929,0.31906 0.0901,0.31987 0.0862,0.32091 0.0815,0.32215 0.0759,0.32352 0.0696,0.32493 0.0628,0.32631 0.0555,0.32763 0.0481,0.3288 0.0406,0.32981 0.0333,0.33062 0.0264,0.33125 0.02,0.3317 0.0142,0.33199 0.009,0.33217 0.005,0.33226 0.002,0.33229 -10e-4,0.31821 L 160,-140 l -6.9e-4,-0.37177 -0.003,-0.37176 -0.006,-0.37173 -0.0104,-0.37162 -0.0159,-0.37144 -0.0223,-0.3711 -0.0295,-0.3706 -0.0373,-0.36989 -0.0455,-0.36898 -0.0538,-0.36786 -0.0621,-0.36655 -0.0702,-0.36508 -0.0779,-0.36352 -0.0849,-0.36195 -0.0912,-0.36042 -0.0965,-0.35903 -0.10076,-0.35786 -0.1039,-0.35696 z" />
  <path
     id="polygon460-5"
     style="fill:none;stroke:#000000;stroke-width:0.1"
     d="m 138.9863,-144.01458 -0.18977,-0.63432 -0.18869,-0.63067 -0.18741,-0.62639 -0.18595,-0.62148 -0.18429,-0.61596 -0.18246,-0.60983 -0.18044,-0.60309 -0.17825,-0.59575 -0.17587,-0.58782 -0.17332,-0.57932 -0.1706,-0.57022 -0.1677,-0.56056 -0.16464,-0.55035 -0.16142,-0.53959 -0.15802,-0.52829 -0.15449,-0.51647 -0.15078,-0.50413 -0.14693,-0.49128 -0.14294,-0.47795 -0.13879,-0.46414 -0.13452,-0.44987 -0.13011,-0.43514 -0.12556,-0.41999 -0.12089,-0.4044 -0.1161,-0.38842 -0.1112,-0.37204 -0.10618,-0.35529 -0.10106,-0.33819 -0.0958,-0.32073 -0.0905,-0.30296 -0.0851,-0.28489 -0.0796,-0.26651 -0.074,-0.24788 -0.0684,-0.22899 -0.0627,-0.20987 -0.0569,-0.19053 -0.0511,-0.171 -0.0452,-0.1513 -0.0392,-0.13144 -0.0333,-0.11144 -0.0273,-0.0913 -0.0212,-0.0711 -0.0152,-0.0509 -0.009,-0.0305 -0.003,-0.0102 c 12.23962,-4.20045 17.2994,-2.2433 20.75935,-0.43081 l 4.42308,14.83344 -19.89234,3.28688 z"
     sodipodi:nodetypes="cccccccccccccccccccccccccccccccccccccccccccccccccc" />
</g>
<path
   id="polygon462-8"
   style="fill:none;stroke:#000000;stroke-width:0.1"
   d="m 89.445178,61.696661 -0.356098,-0.0286 -0.355709,-0.033 -0.355343,-0.0368 -0.355008,-0.0398 -0.354767,-0.0419 -0.35465,-0.043 -0.354657,-0.0429 -0.354815,-0.0415 -13.017977,-1.345894 c 0,0 -1.443406,-1.165752 -2.402429,-2.303028 l 15.388461,1.630445 0.369252,0.04322 0.369086,0.0446 0.369075,0.0447 0.369205,0.04362 0.369453,0.04143 0.369803,0.03826 0.370181,0.03433 0.370579,0.02975 0.370952,0.02475 0.371256,0.01952 0.3715,0.01429 0.371654,0.0093 0.37174,0.0047 0.371768,7.09e-4 0.371764,-0.0024 0.371748,-0.0047 0.371724,-0.0058 0.371728,-0.0056 0.371752,-0.0043 15.474594,-0.0076 c -1.06669,1.034619 -2.63069,2.038398 -2.63069,2.038398 l -13.087348,-0.0267 -0.357221,0.004 -0.357193,0.005 -0.357197,0.006 -0.357208,0.004 -0.357229,0.002 -0.357236,-6.7e-4 -0.357213,-0.004 -0.357126,-0.009 -0.356972,-0.0137 -0.356744,-0.0188 z"
   sodipodi:nodetypes="ccccccccccccccccccccccccccccccccccccccccccccc" />
<g
   id="g1762"
   transform="translate(211.26626,146.07454)"
   style="stroke-width:0.1;stroke-miterlimit:4;stroke-dasharray:none">
  <polygon
     stroke-width="0.1"
     fill="none"
     stroke="#000000"
     points="-91.421529,-3.7008178 -90.605472,-3.7830041 -90.228614,-3.8228985 -90.005998,-3.8475685 -89.74495,-3.877529 -89.152902,-3.9529126 -88.666293,-4.0254022 -88.482555,-4.0564457 -88.323185,-4.0841809 -88.045007,-4.1341988 -87.410734,-4.2512262 -86.188034,-4.4796325 -84.986015,-4.7057921 -83.791923,-4.9312365 -81.417019,-5.3812369 -79.05049,-5.8310571 -76.68846,-6.2810888 -74.329158,-6.7315443 -71.971435,-7.1825974 -69.614338,-7.6343778 -67.256669,-8.0875326 -64.89682,-8.5422939 -62.53405,-8.9985644 -60.167495,-9.4564531 -57.797361,-9.9156941 -55.423867,-10.376102 -53.048254,-10.837202 -50.672404,-11.298375 -48.299528,-11.758649 -45.929834,-12.217984 -43.565105,-12.675884 -41.204454,-13.132636 -50.571509,-47.988262 -52.718634,-47.572997 -54.868236,-47.157057 -57.021011,-46.740222 -59.175871,-46.322808 -61.3326,-45.904869 -63.489326,-45.487005 -65.644737,-45.06967 -67.798263,-44.653113 -69.94974,-44.237465 -72.099056,-43.8229 -74.246793,-43.409294 -76.393157,-42.996836 -78.539068,-42.585417 -80.685254,-42.17457 -82.832233,-41.764232 -84.980665,-41.354326 -87.131518,-40.944762 -89.28701,-40.535385 -90.368676,-40.330575 -91.454906,-40.125476 -92.554102,-39.919157 -93.118334,-39.814296 -93.361056,-39.770161 -93.497139,-39.746129 -93.65116,-39.719672 -94.047988,-39.660006 -94.540344,-39.597773 -94.762597,-39.572615 -94.953935,-39.551718 -95.281615,-39.517534 -96.000059,-39.446146 -97.302958,-39.32247 -98.531677,-39.209777 -99.722193,-39.103006 -102.03564,-38.900524 -104.29506,-38.707796 -106.52094,-38.521981 -108.72514,-38.341473 -110.91474,-38.165532 -113.09572,-37.993696 -115.27437,-37.825907 -117.45999,-37.662049 -119.66464,-37.501582 -121.89222,-37.343168 -124.14032,-37.185906 -126.40648,-37.029352 -128.68477,-36.873161 -130.96342,-36.717041 -133.23619,-36.560897 -135.50254,-36.404738 -137.757,-36.248539 -140,-36.092332 -140,0 -137.52663,-0.17155999 -135.03828,-0.34307207 -132.53443,-0.5144927 -130.02213,-0.68584022 -127.50184,-0.85709552 -124.98245,-1.0283644 -122.47805,-1.1999459 -119.9967,-1.3722351 -117.54134,-1.5457397 -115.11501,-1.7215012 -112.7129,-1.9011092 -110.31981,-2.0852731 -107.92388,-2.274241 -105.5172,-2.4680731 -103.09206,-2.6673954 -100.63961,-2.8731108 -98.144896,-3.0872142 -95.582081,-3.3132301 -94.258272,-3.4330181 -92.886213,-3.5601467 "
     id="polygon348"
     transform="translate(-13.516865,30.719367)"
     style="stroke-width:0.1;stroke-miterlimit:4;stroke-dasharray:none" />
  <line
     x1="-102.66977"
     y1="26.766455"
     x2="-107.56486"
     y2="-8.9406404"
     style="stroke:#000000;stroke-width:0.1;stroke-miterlimit:4;stroke-dasharray:none"
     id="line350" />
  <line
     x1="-123.83668"
     y1="28.634094"
     x2="-126.61259"
     y2="-7.2743316"
     style="stroke:#000000;stroke-width:0.1;stroke-miterlimit:4;stroke-dasharray:none"
     id="line352" />
  <line
     x1="-83.13121"
     y1="23.08499"
     x2="-89.910027"
     y2="-12.277471"
     style="stroke:#000000;stroke-width:0.1;stroke-miterlimit:4;stroke-dasharray:none"
     id="line354" />
  <line
     x1="-135.99492"
     y1="29.519421"
     x2="-137.6572"
     y2="-6.4665389"
     style="stroke:#000000;stroke-width:0.1;stroke-miterlimit:4;stroke-dasharray:none"
     id="line356" />
  <line
     x1="-71.314232"
     y1="20.803673"
     x2="-79.161606"
     y2="-14.350301"
     style="stroke:#000000;stroke-width:0.1;stroke-miterlimit:4;stroke-dasharray:none"
     id="line358" />
</g>
<path
   style="fill:none;stroke:#000000;stroke-width:0.1;stroke-linecap:butt;stroke-linejoin:miter;stroke-miterlimit:4;stroke-dasharray:none;stroke-opacity:1"
   d="m 87.42958,174.70863 0.34407,4.45614"
   id="path2612" />
<path
   style="fill:none;stroke:#000000;stroke-width:0.1;stroke-linecap:butt;stroke-linejoin:miter;stroke-miterlimit:4;stroke-dasharray:none;stroke-opacity:1"
   d="m 108.59649,172.841 0.0943,0.68097"
   id="path2842"
   sodipodi:nodetypes="cc" />
<path
   style="fill:none;stroke:#000000;stroke-width:0.1;stroke-linecap:butt;stroke-linejoin:miter;stroke-opacity:1;stroke-miterlimit:4;stroke-dasharray:none"
   d="m 103.70137,137.1339 5.97093,43.64696"
   id="path2186" />
<path
   style="fill:none;stroke:#000000;stroke-width:0.1;stroke-linecap:butt;stroke-linejoin:miter;stroke-opacity:1;stroke-miterlimit:4;stroke-dasharray:none"
   d="m 109.42289,172.77043 6.41941,-1.20699 23.84241,-4.61236 16.86023,-3.28981 0.67437,2.42412 -20.1093,2.28599 -14.85904,2.16374 -6.45798,1.10813 z"
   id="path5572"
   sodipodi:nodetypes="ccccccccc" />
<path
   style="fill:none;stroke:#000000;stroke-width:0.1;stroke-linecap:butt;stroke-linejoin:miter;stroke-opacity:1;stroke-miterlimit:4;stroke-dasharray:none"
   d="m 105.60049,173.08786 -6.50973,0.5376 -24.21217,1.8719 -17.12919,1.29655 -0.008,2.51616 19.996,-3.12563 14.9011,-1.85194 6.52072,-0.64316 z"
   id="path5572-0"
   sodipodi:nodetypes="ccccccccc" />
<path
   style="fill:none;stroke:#000000;stroke-width:0.1;stroke-linecap:butt;stroke-linejoin:miter;stroke-opacity:1;stroke-miterlimit:4;stroke-dasharray:none"
   d="m 57.74935,176.79392 -0.008,2.51616 c 15.72966,-2.39001 19.39154,0.84493 30.03226,-0.1453 10.51344,-0.97838 9.30812,-3.90733 20.91715,-5.6428 3.18083,-0.48357 4.41472,-1.48993 8.74304,-2.25275 16.14964,-2.84618 39.78549,-5.18383 39.78549,-5.18383 l -0.67437,-2.42412 -47.94846,9.17972 z"
   id="path2615"
   sodipodi:nodetypes="ccscscccc" />
<g
   id="g4762"
   transform="matrix(0.03892264,0.00591872,-0.00591872,0.03892264,-238.88322,21.232983)"
   style="stroke-width:2.54;stroke-miterlimit:4;stroke-dasharray:none">
  <polygon
     stroke-width="0.1"
     fill="none"
     stroke="#000000"
     points="190.96658,-100.86149 191.35679,-100.89225 191.74807,-100.92311 192.14004,-100.95403 192.53231,-100.98499 192.9245,-101.01595 193.31621,-101.04688 193.70706,-101.07775 194.09667,-101.10854 194.48465,-101.13921 194.87064,-101.16973 195.25424,-101.20008 195.63509,-101.23023 196.01283,-101.26013 196.38708,-101.28978 196.75748,-101.31914 197.12369,-101.34818 197.48535,-101.37687 197.84212,-101.40519 198.19366,-101.43312 198.53965,-101.46061 198.87976,-101.48766 199.21368,-101.51424 199.5411,-101.54031 199.86172,-101.56586 200.17525,-101.59087 200.4814,-101.61531 200.77992,-101.63917 201.07053,-101.66241 201.35299,-101.68503 201.62704,-101.707 201.89246,-101.7283 202.14904,-101.74892 202.39656,-101.76885 202.63484,-101.78806 202.86369,-101.80655 203.08295,-101.8243 203.29247,-101.8413 203.49212,-101.85755 203.68181,-101.87303 203.86144,-101.88774 204.03096,-101.90169 204.19036,-101.91487 204.33964,-101.92729 204.47888,-101.93896 204.60819,-101.9499 204.7278,-101.96013 204.83799,-101.9697 204.93922,-101.97865 205.03206,-101.98705 205.11737,-101.995 205.19622,-102.00264 205.27006,-102.01011 205.34062,-102.01762 205.40993,-102.02542 205.4792,-102.03362 205.54962,-102.04238 205.62321,-102.05193 205.70173,-102.06247 205.78661,-102.07416 205.87893,-102.08714 205.97952,-102.10149 206.089,-102.11728 206.20779,-102.13457 206.3362,-102.15339 206.47443,-102.17375 206.62262,-102.19567 206.78082,-102.21916 206.94906,-102.24421 207.12732,-102.27081 207.31554,-102.29896 207.51365,-102.32864 207.72153,-102.35983 207.93907,-102.3925 208.16611,-102.42665 208.40249,-102.46224 208.64804,-102.49924 208.90257,-102.53762 209.16587,-102.57736 209.43772,-102.61842 209.7179,-102.66076 210.00616,-102.70434 210.30226,-102.74914 210.60593,-102.7951 210.91691,-102.84219 211.23492,-102.89037 211.55966,-102.93959 211.89085,-102.9898 212.22818,-103.04096 212.57133,-103.09303 212.91999,-103.14594 213.27383,-103.19966 213.63251,-103.25413 213.9957,-103.3093 214.36305,-103.36512 214.73421,-103.42153 215.10882,-103.47848 215.48652,-103.53591 215.86695,-103.59377 216.24974,-103.652 216.6345,-103.71055 217.02088,-103.76935 217.40848,-103.82834 217.79694,-103.88748 218.18586,-103.9467 218.57486,-104.00595 218.96357,-104.06515 219.35159,-104.12427 219.73855,-104.18323 220.12405,-104.24197 220.50772,-104.30045 220.88918,-104.35859 221.26805,-104.41635 221.64396,-104.47367 222.01652,-104.53048 222.38537,-104.58673 222.75015,-104.64237 223.11049,-104.69734 223.46603,-104.75158 223.81642,-104.80504 224.16131,-104.85767 224.50036,-104.90941 224.83323,-104.96021 225.15958,-105.01003 225.47911,-105.05881 225.79147,-105.1065 226.09638,-105.15305 226.39351,-105.19843 226.68258,-105.24257 226.96329,-105.28545 227.23537,-105.32701 227.49854,-105.36721 227.75254,-105.40601 227.99711,-105.44338 228.23202,-105.47928 228.45702,-105.51366 228.67188,-105.5465 228.8764,-105.57776 229.07037,-105.60741 229.25358,-105.63542 229.42586,-105.66176 229.58703,-105.6864 229.73693,-105.70932 229.8754,-105.73049 230.00231,-105.7499 230.11753,-105.76752 230.22093,-105.78333 230.31242,-105.79733 230.39191,-105.80948 230.4593,-105.81979 230.51453,-105.82824 230.55754,-105.83482 230.5883,-105.83952 230.60677,-105.84235 230.61293,-105.84329 216.44131,-166.4005 216.43687,-166.39982 216.42358,-166.39779 216.40143,-166.3944 216.37046,-166.38966 216.33069,-166.38358 216.28217,-166.37616 216.22495,-166.3674 216.15907,-166.35733 216.08462,-166.34594 216.00166,-166.33325 215.91029,-166.31928 215.81059,-166.30404 215.70266,-166.28753 215.58662,-166.26979 215.46258,-166.25083 215.33066,-166.23066 215.19101,-166.20932 215.04376,-166.18681 214.88905,-166.16316 214.72705,-166.13841 214.55792,-166.11256 214.38183,-166.08566 214.19895,-166.05772 214.00946,-166.02877 213.81357,-165.99885 213.61146,-165.96798 213.40333,-165.93619 213.18939,-165.90353 212.96986,-165.87001 212.74496,-165.83567 212.5149,-165.80055 212.27992,-165.76468 212.04026,-165.7281 211.79614,-165.69085 211.54782,-165.65296 211.29554,-165.61446 211.03955,-165.57541 210.78011,-165.53583 210.51747,-165.49577 210.25189,-165.45527 209.98365,-165.41437 209.713,-165.3731 209.44021,-165.33152 209.16556,-165.28965 208.88932,-165.24755 208.61175,-165.20525 208.33315,-165.1628 208.05377,-165.12024 207.7739,-165.07761 207.49382,-165.03495 207.21379,-164.99232 206.93411,-164.94974 206.65503,-164.90726 206.37684,-164.86492 206.09981,-164.82277 205.82421,-164.78084 205.5503,-164.73918 205.27835,-164.69783 205.00863,-164.65683 204.7414,-164.61621 204.47691,-164.57603 204.21541,-164.5363 203.95716,-164.49708 203.70239,-164.45841 203.45136,-164.42031 203.20429,-164.38282 202.96141,-164.34598 202.72296,-164.30983 202.48914,-164.27439 202.26017,-164.23971 202.03627,-164.2058 201.81762,-164.17271 201.60443,-164.14045 201.39688,-164.10907 201.19516,-164.07859 200.99943,-164.04903 200.80985,-164.02042 200.62659,-163.99278 200.4498,-163.96614 200.2796,-163.94052 200.11613,-163.91593 199.9595,-163.8924 199.80983,-163.86995 199.66719,-163.84858 199.53167,-163.82831 199.40332,-163.80916 199.28219,-163.79112 199.16828,-163.77421 199.06159,-163.75843 198.96206,-163.74377 198.86961,-163.73022 198.78408,-163.71777 198.70526,-163.7064 198.63283,-163.69607 198.56636,-163.68672 198.50525,-163.67831 198.44871,-163.67072 198.39573,-163.66384 198.34502,-163.65754 198.29515,-163.65163 198.24525,-163.64602 198.19444,-163.64061 198.14128,-163.63523 198.0845,-163.62973 198.02309,-163.624 197.95623,-163.61795 197.88336,-163.61151 197.80402,-163.60462 197.7179,-163.59725 197.62479,-163.58938 197.52454,-163.58098 197.41706,-163.57203 197.30229,-163.56254 197.18024,-163.5525 197.0509,-163.54191 196.91433,-163.53076 196.77058,-163.51906 196.61972,-163.50682 196.46185,-163.49404 196.29708,-163.48073 196.12553,-163.4669 195.94731,-163.45255 195.76257,-163.4377 195.57147,-163.42237 195.37415,-163.40655 195.17078,-163.39026 194.96154,-163.37353 194.74661,-163.35635 194.52618,-163.33876 194.30044,-163.32075 194.06959,-163.30235 193.83385,-163.28358 193.59343,-163.26444 193.34855,-163.24497 193.09944,-163.22517 192.84633,-163.20507 192.58945,-163.18468 192.32906,-163.16402 192.06539,-163.14311 191.79869,-163.12197 191.52924,-163.10062 191.25727,-163.07909 190.98305,-163.05739 190.70686,-163.03554 190.42895,-163.01356 190.1496,-162.99148 189.86908,-162.96931 189.58767,-162.94708 189.30564,-162.92481 189.02327,-162.90252 188.74083,-162.88023 188.45861,-162.85797 188.17689,-162.83575 187.89594,-162.8136 187.61604,-162.79154 187.33747,-162.76958 187.0605,-162.74776 186.78541,-162.7261 186.51248,-162.70461 186.24197,-162.68331 185.97415,-162.66223 185.7093,-162.64139 185.44766,-162.62081 185.18951,-162.60051 184.93509,-162.5805 184.68467,-162.56081 184.43849,-162.54146 184.19679,-162.52247 183.95982,-162.50385 183.72782,-162.48562 183.501,-162.46781 183.27961,-162.45042 183.06386,-162.43349 182.85396,-162.41701 182.65013,-162.40101 182.45257,-162.38551 182.26148,-162.37052 182.07704,-162.35605 181.89945,-162.34212 181.72888,-162.32875 181.5655,-162.31594 181.40948,-162.30371 181.26097,-162.29207 181.12013,-162.28104 180.98709,-162.27061 180.86199,-162.26081 180.74496,-162.25165 180.63611,-162.24312 180.53556,-162.23525 180.4434,-162.22803 180.35974,-162.22148 180.28465,-162.2156 180.21821,-162.2104 180.1605,-162.20589 180.11156,-162.20206 180.07145,-162.19892 180.04022,-162.19647 180.01788,-162.19473 180.00447,-162.19368 180,-162.19333 180,-100 180.00621,-100.00049 180.02484,-100.00194 180.05586,-100.00437 180.09924,-100.00777 180.15495,-100.01212 180.22291,-100.01744 180.30307,-100.02372 180.39534,-100.03094 180.49963,-100.0391 180.61583,-100.0482 180.74383,-100.05822 180.88348,-100.06916 181.03466,-100.081 181.19721,-100.09373 181.37095,-100.10734 181.55573,-100.12182 181.75135,-100.13715 181.95761,-100.15331 182.17431,-100.1703 182.40122,-100.18809 182.63813,-100.20666 182.88478,-100.22601 183.14094,-100.2461 183.40635,-100.26692 183.68074,-100.28845 183.96384,-100.31067 184.25536,-100.33355 184.55502,-100.35708 184.8625,-100.38123 185.17752,-100.40597 185.49975,-100.43128 185.82888,-100.45714 186.16457,-100.48352 186.50648,-100.5104 186.85429,-100.53774 187.20765,-100.56553 187.5662,-100.59373 187.92958,-100.62231 188.29744,-100.65126 188.6694,-100.68053 189.04511,-100.71011 189.42419,-100.73996 189.80625,-100.77005 190.19092,-100.80036 190.57783,-100.83084 "
     id="polygon346"
     transform="matrix(25.400001,0,0,25.400001,5181.6001,2938.5992)"
     style="stroke-width:0.1;stroke-miterlimit:4;stroke-dasharray:none" />
  <line
     x1="10399.013"
     y1="347.15359"
     x2="10218.297"
     y2="-1218.1522"
     style="stroke:#000000;stroke-width:2.54;stroke-miterlimit:4;stroke-dasharray:none"
     id="line348" />
  <line
     x1="10197.729"
     y1="363.62662"
     x2="10073.372"
     y2="-1206.2917"
     style="stroke:#000000;stroke-width:2.54;stroke-miterlimit:4;stroke-dasharray:none"
     id="line350-1" />
  <line
     x1="10598.756"
     y1="317.3277"
     x2="10362.112"
     y2="-1239.627"
     style="stroke:#000000;stroke-width:2.54;stroke-miterlimit:4;stroke-dasharray:none"
     id="line352-5" />
</g>
<path
   style="fill:none;stroke:#000000;stroke-width:0.1;stroke-linecap:butt;stroke-linejoin:miter;stroke-miterlimit:4;stroke-dasharray:none;stroke-opacity:1"
   d="m 189.30964,96.308347 0.0423,0.723666 c -21.24377,-1.916213 -25.04287,0.57067 -25.59424,0.561968 l 0.0614,-1.300047"
   id="path4797"
   sodipodi:nodetypes="cccc" />
<path
   style="fill:none;stroke:#b21f1f;stroke-width:0.1;stroke-linecap:butt;stroke-linejoin:miter;stroke-miterlimit:4;stroke-dasharray:none;stroke-opacity:1"
   d="m 138.39159,94.502863 -0.0935,0.718846 c 21.24811,-0.03636 25.05891,2.355024 25.46926,2.374835 l 0.0518,-1.30261"
   id="path4797-9"
   sodipodi:nodetypes="cccc" />
<path
   style="fill:none;stroke:#000000;stroke-width:0.0104167px;stroke-linecap:butt;stroke-linejoin:miter;stroke-opacity:1"
   d="m 151.54527,95.605787 v 0 l 0.0251,-0.172408"
   id="path6322"
   sodipodi:nodetypes="ccc" />
</svg>
